<svg xmlns="http://www.w3.org/2000/svg" version="1.1" viewBox="1 3.64 334.37 179.95">
<path d="M0 0 C2.78799489 0.0031643 5.57492747 -0.02044357 8.36279297 -0.0456543 C35.28030879 -0.14036197 66.60803296 3.38389614 88.03076172 21.41333008 C96.53314475 29.96841383 101.36405076 40.16389858 101.57763672 52.22387695 C101.56732422 53.28541992 101.55701172 54.34696289 101.54638672 55.44067383 C101.54380859 56.55635742 101.54123047 57.67204102 101.53857422 58.8215332 C101.28491511 70.09033928 98.72730015 80.55615951 95.47216797 91.2980957 C94.8336019 93.28867244 94.8336019 93.28867244 94.92138672 95.31567383 C95.62263672 95.03852539 96.32388672 94.76137695 97.04638672 94.47583008 C106.47105988 90.87755133 114.04607954 89.19984415 123.92138672 92.31567383 C128.14813487 94.65387494 129.92861661 97.38413725 131.41748047 101.99536133 C133.64375437 112.24657603 131.71933603 124.29024372 126.29638672 133.25317383 C120.22504212 141.42325483 111.32936497 145.24521663 101.53076172 146.88208008 C95.29040961 147.60824336 89.00668928 147.4601445 82.73388672 147.44067383 C81.47640625 147.44454102 80.21892578 147.4484082 78.92333984 147.45239258 C77.71226562 147.45110352 76.50119141 147.44981445 75.25341797 147.44848633 C74.15747314 147.4473584 73.06152832 147.44623047 71.93237305 147.44506836 C69.14793563 147.32540957 66.63015242 146.94863056 63.92138672 146.31567383 C64.48204086 140.27991635 65.43320651 134.65763113 67.02294922 128.81567383 C67.22367035 128.05391846 67.42439148 127.29216309 67.63119507 126.50732422 C68.26355168 124.10845598 68.90398762 121.71187078 69.54638672 119.31567383 C70.39945763 116.12990828 71.24470671 112.94221183 72.08544922 109.75317383 C72.38378159 108.65489258 72.38378159 108.65489258 72.68814087 107.53442383 C73.14376206 105.80597138 73.53921292 104.06183583 73.92138672 102.31567383 C73.59138672 101.98567383 73.26138672 101.65567383 72.92138672 101.31567383 C72.23173828 101.76297852 71.54208984 102.2102832 70.83154297 102.67114258 C54.28599226 113.31567383 54.28599226 113.31567383 50.92138672 113.31567383 C50.7559436 114.29793945 50.7559436 114.29793945 50.5871582 115.30004883 C49.35071102 122.39193421 47.76315349 129.34202371 45.98388672 136.31567383 C45.60586914 137.82000977 45.60586914 137.82000977 45.22021484 139.35473633 C43.53390286 146.03097915 41.74147239 152.67481197 39.92138672 159.31567383 C48.67622263 159.23071651 57.43087634 159.13562761 66.18546486 159.02814674 C70.25202758 158.97852796 74.31856855 158.93219972 78.38525391 158.89379883 C82.32114244 158.85650514 86.25683185 158.81003633 90.19254684 158.75761032 C91.68254422 158.73929729 93.17258388 158.72410752 94.66264725 158.71232986 C111.4598196 158.68055764 111.4598196 158.68055764 127.60888672 154.62817383 C130.92138672 153.31567383 130.92138672 153.31567383 133.92138672 154.31567383 C125.24911978 166.96272978 113.21997135 175.50110744 98.11471939 178.94929504 C89.53415736 180.38260971 80.56661482 179.78897478 71.90185547 179.70629883 C69.58873486 179.69882594 67.27560787 179.69313797 64.96247864 179.68914795 C58.9142365 179.67397418 52.86638685 179.63476427 46.81829834 179.59033203 C40.63070991 179.54920022 34.44305723 179.53109887 28.25537109 179.51098633 C16.1438718 179.46826143 4.03266207 179.40011132 -8.07861328 179.31567383 C-3.81502835 159.94325415 -3.81502835 159.94325415 -1.71923828 151.68286133 C-1.52513367 150.90927277 -1.33102905 150.1356842 -1.13104248 149.33865356 C-0.5325145 146.95541242 0.06933898 144.57302792 0.67138672 142.19067383 C1.08697672 140.53838676 1.50234213 138.88604318 1.91748047 137.23364258 C2.91621215 133.26033453 3.91791871 129.28778822 4.92138672 125.31567383 C-0.5662491 125.20640674 -5.96793866 125.33848846 -11.43798828 125.81958008 C-12.49985352 125.91182861 -13.56171875 126.00407715 -14.65576172 126.09912109 C-15.45530273 126.1705835 -16.25484375 126.2420459 -17.07861328 126.31567383 C-17.31957985 127.28953285 -17.31957985 127.28953285 -17.56541443 128.2830658 C-19.23200986 135.01561061 -20.90349621 141.74692729 -22.57788086 148.47753906 C-23.20284607 150.99252396 -23.82654627 153.50782355 -24.44897461 156.0234375 C-25.3417575 159.63079175 -26.23902341 163.2370048 -27.13720703 166.84301758 C-27.5560038 168.54143044 -27.5560038 168.54143044 -27.98326111 170.27415466 C-28.24345535 171.31515823 -28.5036496 172.3561618 -28.77172852 173.42871094 C-29.00045151 174.35026474 -29.2291745 175.27181854 -29.46482849 176.22129822 C-30.07861328 178.31567383 -30.07861328 178.31567383 -31.07861328 179.31567383 C-32.52151115 179.40863198 -33.96891113 179.43313896 -35.41479492 179.42919922 C-36.33567398 179.42912369 -37.25655304 179.42904816 -38.20533752 179.42897034 C-39.20637009 179.42380905 -40.20740265 179.41864777 -41.23876953 179.41333008 C-42.25837265 179.41191513 -43.27797577 179.41050018 -44.32847595 179.40904236 C-47.59938435 179.4034248 -50.87022541 179.39086933 -54.14111328 179.37817383 C-56.35270084 179.37316109 -58.56428946 179.36859779 -60.77587891 179.36450195 C-66.21014685 179.35344966 -71.64437526 179.33669446 -77.07861328 179.31567383 C-76.42943082 171.05293852 -74.51203638 163.16984489 -72.54345703 155.14379883 C-72.18254907 153.65680479 -71.82200704 152.16972189 -71.46180725 150.68255615 C-70.70458981 147.56165866 -69.94346965 144.44174718 -69.17944336 141.32250977 C-68.22368231 137.41951903 -67.27672077 133.51446239 -66.33255386 129.60865307 C-62.08831129 112.06678573 -57.61856467 94.61756503 -52.72192383 77.24560547 C-50.99241011 71.08383546 -49.49643129 64.8925424 -48.07861328 58.65161133 C-46.78224084 52.95800948 -45.36452162 47.29426306 -43.95361328 41.62817383 C-43.57245361 40.08456177 -43.57245361 40.08456177 -43.18359375 38.50976562 C-41.98508844 33.7082091 -40.7476052 28.98090363 -39.07861328 24.31567383 C-36.90964209 27.56913061 -36.63300065 29.2722626 -36.14892578 33.09301758 C-35.99294922 34.24737305 -35.83697266 35.40172852 -35.67626953 36.59106445 C-35.36575625 38.99690084 -35.05836732 41.40314294 -34.75439453 43.80981445 C-33.41295867 53.67427569 -31.44763741 63.4362567 -25.89111328 71.87817383 C-24.22596258 74.44545681 -23.05231668 76.39456363 -22.07861328 79.31567383 C-20.32041836 80.3967538 -20.32041836 80.3967538 -18.07861328 81.31567383 C-17.16466797 81.79004883 -16.25072266 82.26442383 -15.30908203 82.75317383 C1.61443527 91.44304151 19.13109016 92.48562528 37.46826172 87.31567383 C49.78178227 83.22909059 62.0690628 76.71954138 68.92138672 65.31567383 C71.14835005 60.43756367 71.67284596 55.60272632 70.92138672 50.31567383 C69.85673557 47.46823421 68.45636864 44.93186564 66.92138672 42.31567383 C66.48439453 41.2734668 66.48439453 41.2734668 66.03857422 40.21020508 C64.60612168 37.78104606 63.50985949 37.41817149 60.92138672 36.31567383 C59.84630859 35.73172852 58.77123047 35.1477832 57.66357422 34.54614258 C43.11424893 26.77407523 28.32625051 22.84253345 11.92138672 21.31567383 C10.79216797 21.20481445 9.66294922 21.09395508 8.49951172 20.97973633 C-12.05057599 19.29006245 -32.59248427 20.32907455 -53.07861328 22.31567383 C-53.81370117 22.38512207 -54.54878906 22.45457031 -55.30615234 22.52612305 C-79.33294317 24.90699264 -103.79806241 31.38645862 -125.53491211 41.91455078 C-130.77991548 44.41523976 -130.77991548 44.41523976 -134.07861328 43.31567383 C-123.45574847 30.27677839 -106.49478594 22.24528732 -91.07861328 16.31567383 C-89.97904297 15.8799707 -88.87947266 15.44426758 -87.74658203 14.99536133 C-59.524589 4.3493426 -30.05324737 -0.07091747 0 0 Z M91.17138672 109.19067383 C87.07419117 115.57952112 84.33601366 124.71943737 84.92138672 132.31567383 C85.83154441 134.22892388 85.83154441 134.22892388 87.92138672 135.31567383 C94.23379276 136.83935805 99.09565619 136.24584324 104.92138672 133.31567383 C110.27491517 128.68559517 112.45940469 120.87166394 113.34716797 114.03833008 C113.57560963 109.63476912 113.57560963 109.63476912 112.92138672 105.31567383 C110.24334404 103.25393567 108.44913155 102.39776747 105.10888672 101.87817383 C99.22463651 102.68581601 95.26843437 104.90739674 91.17138672 109.19067383 Z " fill="#C3A1B6" transform="translate(135.07861328125,3.684326171875)"/>
<path d="M0 0 C-1.45537568 0.83848804 -2.91440373 1.67063934 -4.375 2.5 C-5.18710938 2.9640625 -5.99921875 3.428125 -6.8359375 3.90625 C-9 5 -9 5 -11 5 C-11.11029541 5.65484375 -11.22059082 6.3096875 -11.33422852 6.984375 C-12.57067569 14.07626039 -14.15823323 21.02634988 -15.9375 28 C-16.18951172 29.00289062 -16.44152344 30.00578125 -16.70117188 31.0390625 C-18.38748385 37.71530532 -20.17991433 44.35913814 -22 51 C-13.24516409 50.91504268 -4.49051038 50.81995378 4.26407814 50.71247292 C8.33064087 50.66285413 12.39718183 50.61652589 16.46386719 50.578125 C20.39975572 50.54083131 24.33544513 50.4943625 28.27116013 50.44193649 C29.7611575 50.42362346 31.25119716 50.40843369 32.74126053 50.39665604 C49.53843288 50.36488381 49.53843288 50.36488381 65.6875 46.3125 C69 45 69 45 72 46 C63.32773306 58.64705595 51.29858463 67.18543362 36.19333267 70.63362122 C27.61277065 72.06693588 18.6452281 71.47330095 9.98046875 71.390625 C7.66734815 71.38315212 5.35422115 71.37746414 3.04109192 71.37347412 C-3.00715022 71.35830035 -9.05499987 71.31909044 -15.10308838 71.2746582 C-21.29067681 71.23352639 -27.47832949 71.21542504 -33.66601562 71.1953125 C-45.77751491 71.1525876 -57.88872465 71.08443749 -70 71 C-65.73641507 51.62758032 -65.73641507 51.62758032 -63.640625 43.3671875 C-63.44652039 42.59359894 -63.25241577 41.82001038 -63.0524292 41.02297974 C-62.45390122 38.63973859 -61.85204774 36.25735409 -61.25 33.875 C-60.83441 32.22271293 -60.41904459 30.57036936 -60.00390625 28.91796875 C-59.00517457 24.94466071 -58.00346801 20.97211439 -57 17 C-58.98 16.67 -60.96 16.34 -63 16 C-60.19036647 13.65651021 -58.0996258 12.55543576 -54.5 11.9375 C-53.63246094 11.78539063 -52.76492187 11.63328125 -51.87109375 11.4765625 C-50.92363281 11.31929687 -49.97617188 11.16203125 -49 11 C-47.93910156 10.80148438 -46.87820312 10.60296875 -45.78515625 10.3984375 C-37.38602941 8.87132353 -37.38602941 8.87132353 -34 10 C-33.34 8.68 -32.68 7.36 -32 6 C-31.21625 6.04125 -30.4325 6.0825 -29.625 6.125 C-26.83883881 6.28728734 -26.83883881 6.28728734 -25 4 C-22.27130593 4.03287583 -19.7033382 4.56397771 -17 5 C-17 4.34 -17 3.68 -17 3 C-17.66 2.34 -18.32 1.68 -19 1 C-15.25 -0.125 -15.25 -0.125 -13 1 C-10.20006617 0.63479124 -7.52819391 0.15091254 -4.8125 -0.625 C-3 -1 -3 -1 0 0 Z " fill="#C2A044" transform="translate(197,112)"/>
<path d="M0 0 C7.41624864 -0.07021596 14.83242298 -0.12316792 22.24893951 -0.15543652 C25.69456411 -0.17094162 29.13995758 -0.19189342 32.58544922 -0.22631836 C77.71279416 -0.6648934 77.71279416 -0.6648934 94.09375 14.85546875 C97.09690219 18.23401496 99.22618163 21.8539667 101 26 C101.36609375 26.83015625 101.7321875 27.6603125 102.109375 28.515625 C103.43749424 33.71160028 103.32832176 38.78357508 103.3125 44.125 C103.32861328 45.18976563 103.34472656 46.25453125 103.36132812 47.3515625 C103.36197266 48.41375 103.36261719 49.4759375 103.36328125 50.5703125 C103.36626221 51.51664551 103.36924316 52.46297852 103.37231445 53.43798828 C102.82053631 58.71696736 101.28731548 63.8507381 100 69 C91.75 69 83.5 69 75 69 C75.33 66.03 75.66 63.06 76 60 C76.45363337 52.8029321 76.69571461 46.35200948 73 40 C67.25542711 37.33695296 61.89647043 36.34063661 55.625 35.8125 C54.74175049 35.73209473 53.85850098 35.65168945 52.94848633 35.56884766 C41.32184068 34.6271506 29.653942 34.81987725 18 35 C17.84192871 34.14567383 17.68385742 33.29134766 17.52099609 32.41113281 C15.28253977 20.76366719 11.27437447 9.49701454 1.50390625 2.13671875 C1.00761719 1.76160156 0.51132813 1.38648437 0 1 C0 0.67 0 0.34 0 0 Z " fill="#CEB24E" transform="translate(232,23)"/>
<path d="M0 0 C5.61 0 11.22 0 17 0 C18.60328254 7.51451557 19.71674215 14.99748766 20.625 22.625 C20.82609375 24.27435547 20.82609375 24.27435547 21.03125 25.95703125 C21.35758335 28.63762658 21.68043394 31.31859098 22 34 C28.07554189 23.12718305 31.37062401 11.90435325 35 0 C42.92 0 50.84 0 59 0 C58.28710595 4.27736428 57.85947921 6.78909361 56.1796875 10.50390625 C55.81302979 11.32036621 55.44637207 12.13682617 55.06860352 12.97802734 C54.47776978 14.25734131 54.47776978 14.25734131 53.875 15.5625 C53.46757568 16.45146973 53.06015137 17.34043945 52.64038086 18.25634766 C45.8252487 32.9870762 37.53910235 50.17077525 25 61 C24.34 61 23.68 61 23 61 C22.67 61.99 22.34 62.98 22 64 C15.23274413 70.44168342 7.58684771 75.02136161 -0.8125 79 C-1.59995605 79.37334473 -2.38741211 79.74668945 -3.19873047 80.13134766 C-10.34815762 83.38491613 -17.10917787 85.13182362 -25 85.625 C-26.7015625 85.73714844 -26.7015625 85.73714844 -28.4375 85.8515625 C-29.283125 85.90054688 -30.12875 85.94953125 -31 86 C-31 85.34 -31 84.68 -31 84 C-30.27296875 83.79246094 -29.5459375 83.58492188 -28.796875 83.37109375 C-14.82043033 79.08856776 -1.72843358 71.76197933 6.125 59.0546875 C8.76987339 52.84395802 7.60974678 47.40699016 6.34765625 41.03515625 C6.16867294 40.08362167 5.98968964 39.1320871 5.80528259 38.15171814 C5.23400694 35.12005031 4.64935777 32.09118698 4.0625 29.0625 C3.48056616 26.03716693 2.90172376 23.01135447 2.33042908 19.98399353 C1.97526529 18.10397601 1.6138904 16.22511785 1.24537659 14.34767151 C1.08198288 13.48665329 0.91858917 12.62563507 0.75024414 11.73852539 C0.6051088 10.99051163 0.45997345 10.24249786 0.31044006 9.47181702 C-0.0832081 6.33747213 0 3.15896767 0 0 Z " fill="#C7A84C" transform="translate(271,97)"/>
<path d="M0 0 C2.93050668 0.01853656 5.86069985 0.02050681 8.79125977 0.02026367 C10.6838406 0.02517152 12.57641932 0.03099661 14.46899414 0.0378418 C15.7613221 0.03951103 15.7613221 0.03951103 17.07975769 0.04121399 C22.205076 0.08114008 27.13327165 0.47343869 32.20727539 1.20581055 C31.07940301 5.2661511 29.63159389 6.82131372 26.06274414 8.97143555 C21.16427595 12.23020596 16.46913226 16.31302524 13.20727539 21.20581055 C10.73909151 21.26547402 8.52423985 21.14583092 6.08227539 20.89331055 C-13.94639218 19.30874354 -33.82160794 20.26915351 -53.79272461 22.20581055 C-54.5278125 22.27525879 -55.26290039 22.34470703 -56.02026367 22.41625977 C-80.0470545 24.79712936 -104.51217374 31.27659534 -126.24902344 41.8046875 C-131.49402681 44.30537648 -131.49402681 44.30537648 -134.79272461 43.20581055 C-124.16985979 30.1669151 -107.20889726 22.13542404 -91.79272461 16.20581055 C-90.6931543 15.77010742 -89.59358398 15.3344043 -88.46069336 14.88549805 C-59.9549206 4.13243074 -30.34220488 -0.19855101 0 0 Z " fill="#894671" transform="translate(135.792724609375,3.794189453125)"/>
<path d="M0 0 C12.32928475 1.64102564 12.32928475 1.64102564 16 6 C20.76353708 15.36281426 19.57679556 24.98327011 17.03125 34.91796875 C14.14651566 43.53939069 9.02057091 48.87020272 1 53 C-9.07262327 57.36822948 -19.38585844 57.15852812 -30.1875 57.125 C-31.44498047 57.12886719 -32.70246094 57.13273437 -33.99804688 57.13671875 C-35.20912109 57.13542969 -36.42019531 57.13414062 -37.66796875 57.1328125 C-38.76391357 57.13168457 -39.8598584 57.13055664 -40.98901367 57.12939453 C-43.77345109 57.00973574 -46.2912343 56.63295674 -49 56 C-48.61061216 50.0786194 -47.8762182 45.238826 -45 40 C-42.375 37.75 -42.375 37.75 -40 36 C-39.67 35.01 -39.34 34.02 -39 33 C-37.00934459 31.98152514 -35.00751815 30.98482022 -33 30 C-30.90233594 28.4232006 -28.97171586 26.73698779 -27 25 C-26.34 25.66 -25.68 26.32 -25 27 C-25.3125 30.125 -25.3125 30.125 -26 34 C-26.4549142 36.6859296 -26.76919924 39.27655103 -27 42 C-24.56755978 44.43244022 -22.65494435 44.69739617 -19.2890625 45.015625 C-15.11655983 44.98714375 -11.60360129 44.12502443 -8 42 C-1.66303524 35.15546282 -0.79297471 26.60851848 -0.44140625 17.671875 C-0.74056268 14.7577275 -0.74056268 14.7577275 -3.52734375 13.140625 C-4.34332031 12.76421875 -5.15929687 12.3878125 -6 12 C-5.51300383 7.61703444 -4.16604109 5.96816352 -1 3 C-0.67 2.01 -0.34 1.02 0 0 Z " fill="#BB95AB" transform="translate(248,94)"/>
<path d="M0 0 C0.33 0 0.66 0 1 0 C1.82473024 16.57919256 0.33635616 31.05298231 -4.44921875 46.96655273 C-5.08714674 48.97061995 -5.08714674 48.97061995 -5 51 C-4.28714844 50.71125 -3.57429688 50.4225 -2.83984375 50.125 C2.67891872 47.98582962 7.07358061 46.47320716 13 47 C12.67 47.99 12.34 48.98 12 50 C11.34 50 10.68 50 10 50 C8.92474806 52.65228812 7.90543849 55.28368454 7 58 C4.890625 58.7734375 4.890625 58.7734375 2.25 59.375 C-4.10835425 61.13215203 -7.03621732 64.20087395 -10.3125 69.8125 C-10.869375 70.864375 -11.42625 71.91625 -12 73 C-12.99 73 -13.98 73 -15 73 C-16.48875956 74.2622092 -17.97587719 75.52677632 -19.4375 76.8203125 C-21.51961441 78.39230888 -23.42921363 78.77316591 -26 79 C-26.061875 79.5775 -26.12375 80.155 -26.1875 80.75 C-27.32027301 83.88690987 -29.34197595 85.09167504 -32 87 C-33.49617712 84.00764576 -32.40364158 82.12229563 -31.53125 78.93359375 C-31.20769531 77.72638672 -30.88414062 76.51917969 -30.55078125 75.27539062 C-30.20402344 74.00888672 -29.85726562 72.74238281 -29.5 71.4375 C-28.81764128 68.9376319 -28.1402662 66.43639617 -27.46875 63.93359375 C-27.16388672 62.82040771 -26.85902344 61.70722168 -26.54492188 60.56030273 C-26.36509766 59.71540283 -26.18527344 58.87050293 -26 58 C-26.33 57.67 -26.66 57.34 -27 57 C-27.61488281 57.44472656 -28.22976562 57.88945313 -28.86328125 58.34765625 C-29.67152344 58.91355469 -30.47976562 59.47945312 -31.3125 60.0625 C-32.11300781 60.63097656 -32.91351563 61.19945312 -33.73828125 61.78515625 C-34.48464844 62.18605469 -35.23101562 62.58695313 -36 63 C-36.99 62.67 -37.98 62.34 -39 62 C-39 61.34 -39 60.68 -39 60 C-38.34 60 -37.68 60 -37 60 C-37 59.34 -37 58.68 -37 58 C-35.02 57.505 -35.02 57.505 -33 57 C-33 56.34 -33 55.68 -33 55 C-32.01 55 -31.02 55 -30 55 C-30.185625 54.21625 -30.37125 53.4325 -30.5625 52.625 C-31 50 -31 50 -30 48 C-28.35 48 -26.7 48 -25 48 C-23 52.75 -23 52.75 -23 55 C-16.92029084 53.69720518 -12.15667301 50.59642179 -8 46 C-6.4184221 42.01167312 -6 39.2900471 -6 35 C-5.979375 33.989375 -5.95875 32.97875 -5.9375 31.9375 C-5.85635633 28.93763763 -5.85635633 28.93763763 -7 26 C-5.68 26 -4.36 26 -3 26 C-3 25.34 -3 24.68 -3 24 C-2.34 24 -1.68 24 -1 24 C-1.01160156 23.18917969 -1.02320313 22.37835938 -1.03515625 21.54296875 C-1.09422542 14.29433826 -0.80842879 7.20367799 0 0 Z " fill="#B995AB" transform="translate(235,48)"/>
<path d="M0 0 C7.92 0 15.84 0 24 0 C23.26365542 4.41806747 22.77212111 6.97443527 21.00390625 10.8203125 C20.61009766 11.68527344 20.21628906 12.55023438 19.81054688 13.44140625 C19.39869141 14.32699219 18.98683594 15.21257812 18.5625 16.125 C18.15451172 17.01832031 17.74652344 17.91164063 17.32617188 18.83203125 C16.22889428 21.22706782 15.12572281 23.61820473 14 26 C13.69698975 26.71784668 13.39397949 27.43569336 13.08178711 28.17529297 C11.24892379 31.26687962 8.26902995 31.85297195 5 33 C4.01 33 3.02 33 2 33 C2 34.32 2 35.64 2 37 C2.66 37.33 3.32 37.66 4 38 C2.68 39.32 1.36 40.64 0 42 C-2 41 -4 40 -6 39 C-6 38.34 -6 37.68 -6 37 C-6.99 36.67 -7.98 36.34 -9 36 C-8.814375 35.443125 -8.62875 34.88625 -8.4375 34.3125 C-7.83450624 31.98760536 -7.83450624 31.98760536 -8.55786133 29.65991211 C-9.0651846 26.6078486 -8.65256228 25.02751137 -7.63671875 22.12890625 C-7.32669922 21.22462891 -7.01667969 20.32035156 -6.69726562 19.38867188 C-6.36404297 18.45603516 -6.03082031 17.52339844 -5.6875 16.5625 C-5.36587891 15.63373047 -5.04425781 14.70496094 -4.71289062 13.74804688 C-4.10927928 12.00662194 -3.50072875 10.26689493 -2.88549805 8.52954102 C-1.89380424 5.69663792 -0.9491468 2.84744041 0 0 Z " fill="#BB973B" transform="translate(306,97)"/>
<path d="M0 0 C2.16897119 3.25345678 2.44561263 4.95658878 2.9296875 8.77734375 C3.08566406 9.93169922 3.24164063 11.08605469 3.40234375 12.27539062 C3.71285703 14.68122701 4.02024596 17.08746911 4.32421875 19.49414062 C5.28402208 26.5522066 6.75227597 32.91374506 9.29736328 39.57641602 C10 42 10 42 9 45 C7.515 45.495 7.515 45.495 6 46 C6 45.34 6 44.68 6 44 C1.176525 46.55360441 -2.1646925 49.06376335 -6 53 C-6.886875 53.474375 -7.77375 53.94875 -8.6875 54.4375 C-11.75165321 56.50787379 -12.14148605 58.48789749 -13 62 C-13.66 61.67 -14.32 61.34 -15 61 C-14.43388396 55.57371751 -13.43883631 50.543927 -11.875 45.3125 C-9.06442669 35.59573467 -6.73103503 25.76973984 -4.41162109 15.92700195 C-4.12754395 14.72906006 -3.8434668 13.53111816 -3.55078125 12.296875 C-3.29981689 11.22791992 -3.04885254 10.15896484 -2.7902832 9.05761719 C-1.99533378 5.98194634 -1.0397305 3.00085503 0 0 Z " fill="#B992A9" transform="translate(96,28)"/>
<path d="M0 0 C-0.99 0.99 -1.98 1.98 -3 3 C-3.99 2.67 -4.98 2.34 -6 2 C-6.66 2.66 -7.32 3.32 -8 4 C-8.99 4 -9.98 4 -11 4 C-13.69290446 4.57668317 -16.3349698 5.30097568 -19 6 C-19.33 7.65 -19.66 9.3 -20 11 C-22.475 10.01 -22.475 10.01 -25 9 C-26.4606285 11.64738916 -27 12.89448334 -27 16 C-22.545 15.505 -22.545 15.505 -18 15 C-18.33 15.99 -18.66 16.98 -19 18 C-21.97224925 18.91852877 -24.84405356 19.65068828 -27.875 20.3125 C-42.59807078 23.77884764 -56.64775513 27.96353753 -70.30322266 34.5480957 C-75.69595717 37.10134761 -75.69595717 37.10134761 -79 36 C-68.38709997 22.97333571 -51.41538156 14.90410731 -36 9 C-34.81921875 8.54109375 -33.6384375 8.0821875 -32.421875 7.609375 C-10.9618346 -0.3779943 -10.9618346 -0.3779943 0 0 Z " fill="#A17098" transform="translate(80,11)"/>
<path d="M0 0 C0.66 0.66 1.32 1.32 2 2 C1.6875 5.125 1.6875 5.125 1 9 C0.5450858 11.6859296 0.23080076 14.27655103 0 17 C2.6855594 19.6855594 5.37621328 20.06049974 9 21 C4.30134279 29.40812342 4.30134279 29.40812342 1 32 C-2.03294758 32.75354563 -4.89613182 32.61637552 -8 32.4375 C-9.19109375 32.40946289 -9.19109375 32.40946289 -10.40625 32.38085938 C-14.36756614 32.25871879 -18.13548563 31.94275451 -22 31 C-21.61061216 25.0786194 -20.8762182 20.238826 -18 15 C-15.375 12.75 -15.375 12.75 -13 11 C-12.67 10.01 -12.34 9.02 -12 8 C-10.00934459 6.98152514 -8.00751815 5.98482022 -6 5 C-3.90233594 3.4232006 -1.97171586 1.73698779 0 0 Z " fill="#E5D6E0" transform="translate(221,119)"/>
<path d="M0 0 C-1.45537568 0.83848804 -2.91440373 1.67063934 -4.375 2.5 C-5.18710938 2.9640625 -5.99921875 3.428125 -6.8359375 3.90625 C-9 5 -9 5 -11 5 C-11.11029541 5.65121826 -11.22059082 6.30243652 -11.33422852 6.97338867 C-12.59165805 14.16333892 -14.17066851 21.23182268 -15.9375 28.3125 C-16.18951172 29.35728516 -16.44152344 30.40207031 -16.70117188 31.47851562 C-17.9905077 36.66553674 -19.32235052 41.3236492 -22 46 C-22.495 46.99 -22.495 46.99 -23 48 C-23.5534764 45.92446352 -24 44.15634036 -24 42 C-24.66 41.01 -25.32 40.02 -26 39 C-25.625 35.3125 -25.625 35.3125 -25 32 C-23.35 32 -21.7 32 -20 32 C-17.88862237 26.45763373 -16.76912646 22.00271204 -17 16 C-16.71479595 14.32442621 -16.40044304 12.65182755 -16 11 C-21.18362912 11 -25.64484201 12.15763936 -30.625 13.5 C-35.68031642 14.79351112 -40.51660501 15.43913064 -45.72265625 15.69140625 C-48.27678598 15.86822685 -48.27678598 15.86822685 -51 18 C-50.34 18.66 -49.68 19.32 -49 20 C-49.66 21.32 -50.32 22.64 -51 24 C-51.66 23.01 -52.32 22.02 -53 21 C-55.45489316 26.12325529 -56.50341703 30.33895411 -57 36 C-57.66 36 -58.32 36 -59 36 C-59 36.66 -59 37.32 -59 38 C-58.34 38.33 -57.68 38.66 -57 39 C-57.33 40.98 -57.66 42.96 -58 45 C-59.32 44.34 -60.64 43.68 -62 43 C-61.35343144 34.10968231 -59.12977433 25.62806252 -57 17 C-58.98 16.67 -60.96 16.34 -63 16 C-60.19036647 13.65651021 -58.0996258 12.55543576 -54.5 11.9375 C-53.63246094 11.78539063 -52.76492187 11.63328125 -51.87109375 11.4765625 C-50.92363281 11.31929687 -49.97617188 11.16203125 -49 11 C-47.93910156 10.80148438 -46.87820312 10.60296875 -45.78515625 10.3984375 C-37.38602941 8.87132353 -37.38602941 8.87132353 -34 10 C-33.34 8.68 -32.68 7.36 -32 6 C-31.21625 6.04125 -30.4325 6.0825 -29.625 6.125 C-26.83883881 6.28728734 -26.83883881 6.28728734 -25 4 C-22.27130593 4.03287583 -19.7033382 4.56397771 -17 5 C-17 4.34 -17 3.68 -17 3 C-17.66 2.34 -18.32 1.68 -19 1 C-15.25 -0.125 -15.25 -0.125 -13 1 C-10.20006617 0.63479124 -7.52819391 0.15091254 -4.8125 -0.625 C-3 -1 -3 -1 0 0 Z " fill="#AD823B" transform="translate(197,112)"/>
<path d="M0 0 C6.6920127 -0.4248897 12.5732088 0.3641215 19.0625 1.875 C19.8248999 2.04870117 20.5872998 2.22240234 21.37280273 2.40136719 C23.26704013 2.86417962 25.13690939 3.42447934 27 4 C27.495 4.99 27.495 4.99 28 6 C27.13375 6.268125 26.2675 6.53625 25.375 6.8125 C19.32347797 8.94173923 15.17189473 11.44200831 10.6875 16.0625 C9.82511719 16.94035156 8.96273437 17.81820313 8.07421875 18.72265625 C5.97864822 20.81632962 5.97864822 20.81632962 5 23 C-2.59 21.68 -10.18 20.36 -18 19 C-15.45582836 14.75971393 -13.63569868 12.45244573 -10.0625 9.25 C-9.20785156 8.47140625 -8.35320312 7.6928125 -7.47265625 6.890625 C-5.17142416 5.13107313 -3.8231229 4.39301015 -1 4 C-0.67 2.68 -0.34 1.36 0 0 Z " fill="#E0CFD9" transform="translate(167,6)"/>
<path d="M0 0 C0.61875 0.2475 1.2375 0.495 1.875 0.75 C3.195 0.42 4.515 0.09 5.875 -0.25 C7.195 2.39 8.515 5.03 9.875 7.75 C9.32972656 8.07871094 8.78445312 8.40742187 8.22265625 8.74609375 C2.83187686 12.14643152 -1.4511264 15.9380134 -5.87109375 20.51171875 C-11.5943206 26.19526986 -18.20404457 30.65777295 -25.125 34.75 C-24.0861908 28.6387076 -22.96769722 22.67295536 -21.125 16.75 C-20.465 16.75 -19.805 16.75 -19.125 16.75 C-18.795 15.88375 -18.465 15.0175 -18.125 14.125 C-15.89061367 10.35447307 -13.72452344 8.66684837 -10.18359375 6.2109375 C-8.26967807 4.85267476 -6.59842731 3.39998267 -4.875 1.8125 C-2.125 -0.25 -2.125 -0.25 0 0 Z " fill="#E1D0D9" transform="translate(101.125,72.25)"/>
<path d="M0 0 C-9.37095479 13.66597573 -21.87872219 21.27405966 -38 25 C-42.69160444 25.49684773 -47.32085114 25.51688678 -52.03515625 25.4609375 C-53.31684189 25.46002106 -54.59852753 25.45910461 -55.91905212 25.4581604 C-58.60243166 25.45506659 -61.28526383 25.43875443 -63.96850586 25.41162109 C-67.40151574 25.37733411 -70.83393723 25.37000321 -74.26709843 25.37151146 C-77.56484234 25.37083735 -80.86246334 25.35318085 -84.16015625 25.3359375 C-85.38928238 25.33371185 -86.61840851 25.33148621 -87.88478088 25.32919312 C-89.02374313 25.31643341 -90.16270538 25.30367371 -91.33618164 25.29052734 C-92.33621719 25.28290375 -93.33625275 25.27528015 -94.36659241 25.26742554 C-97.04684138 24.9952432 -98.70406842 24.36951798 -101 23 C-86.56212093 21.97748128 -72.2746263 22.03783018 -57.8125 22.4375 C-55.68295942 22.4909049 -53.553402 22.54364289 -51.42382812 22.59570312 C-46.28232636 22.72281238 -41.14113427 22.85883568 -36 23 C-36 22.01 -36 21.02 -36 20 C-31.25 19 -31.25 19 -29 19 C-27.66216607 18.68521554 -26.32796291 18.35412344 -25 18 C-24.814375 17.0409375 -24.814375 17.0409375 -24.625 16.0625 C-24.41875 15.381875 -24.2125 14.70125 -24 14 C-23.34 13.67 -22.68 13.34 -22 13 C-22.99 12.34 -23.98 11.68 -25 11 C-22.525 10.505 -22.525 10.505 -20 10 C-20 10.66 -20 11.32 -20 12 C-17.69 11.34 -15.38 10.68 -13 10 C-13 9.34 -13 8.68 -13 8 C-13.78375 8.185625 -14.5675 8.37125 -15.375 8.5625 C-18 9 -18 9 -20 8 C-20 7.34 -20 6.68 -20 6 C-21.65 6 -23.3 6 -25 6 C-25.33 6.66 -25.66 7.32 -26 8 C-30.94383313 8.0498757 -35.88751599 8.08594211 -40.83154297 8.10986328 C-42.50930334 8.11984803 -44.18704664 8.13344057 -45.86474609 8.15087891 C-54.83615457 8.24171508 -63.24818279 8.26370832 -72 6 C-72 5.67 -72 5.34 -72 5 C-71.44226898 4.99191315 -70.88453796 4.98382629 -70.30990601 4.97549438 C-64.4358879 4.88855757 -58.56217337 4.78903106 -52.68847656 4.68261719 C-50.5046097 4.64464249 -48.32068696 4.60973853 -46.13671875 4.578125 C-34.53603438 4.4081516 -9.31291152 -3.10430384 0 0 Z " fill="#E0D287" transform="translate(269,158)"/>
<path d="M0 0 C5.28 0.33 10.56 0.66 16 1 C13.85840924 6.3539769 13.85840924 6.3539769 9.85546875 8.765625 C4.95700056 12.02439541 0.26185687 16.1072147 -3 21 C-5.96528179 21.0562279 -8.68850026 20.95683804 -11.625 20.6875 C-12.42679688 20.62626953 -13.22859375 20.56503906 -14.0546875 20.50195312 C-16.03758124 20.34851492 -18.01898519 20.17604307 -20 20 C-19.64453125 18.08984375 -19.64453125 18.08984375 -19 16 C-17.34928604 14.97388051 -15.68029994 13.97691857 -14 13 C-13.34 12.175 -12.68 11.35 -12 10.5 C-9.88364163 7.85455204 -7.91513046 6.65453351 -5 5 C-4.67 4.34 -4.34 3.68 -4 3 C-1.9375 1.875 -1.9375 1.875 0 1 C0 0.67 0 0.34 0 0 Z " fill="#B58CA5" transform="translate(152,4)"/>
<path d="M0 0 C-0.55202022 8.39451436 -2.61052468 15.33407 -8 22 C-16.16644196 28.73690383 -24.61523447 31.17581226 -35 32 C-35.33 31.34 -35.66 30.68 -36 30 C-25.20740223 21.01256983 -25.20740223 21.01256983 -21.625 18.75 C-18.65307902 16.76871935 -16.47045698 14.58536196 -14 12 C-12.48378654 10.45378951 -10.96254301 8.91250251 -9.4375 7.375 C-8.69371094 6.61960937 -7.94992187 5.86421875 -7.18359375 5.0859375 C-1.85955056 0 -1.85955056 0 0 0 Z " fill="#A06A8B" transform="translate(266,119)"/>
<path d="M0 0 C0.33 0 0.66 0 1 0 C1.82238203 16.53198756 2.60402458 37.59396314 -7 52 C-8.33222592 52.66887691 -9.66568339 53.33530353 -11 54 C-12.33415517 55.24773216 -13.62414673 56.54377062 -14.875 57.875 C-17.25155864 60.33136844 -19.45883988 62.46313718 -22.375 64.25 C-25.02624398 66.01749599 -25.94520184 67.04656515 -27 70 C-28.15837573 66.52487282 -27.77265943 64.86329714 -27.0625 61.3125 C-26.86785156 60.31863281 -26.67320312 59.32476562 -26.47265625 58.30078125 C-26.31667969 57.54152344 -26.16070312 56.78226563 -26 56 C-26.68707031 56.51691406 -27.37414062 57.03382812 -28.08203125 57.56640625 C-28.98308594 58.22511719 -29.88414062 58.88382813 -30.8125 59.5625 C-31.70582031 60.22378906 -32.59914062 60.88507813 -33.51953125 61.56640625 C-34.33808594 62.03949219 -35.15664062 62.51257813 -36 63 C-36.99 62.67 -37.98 62.34 -39 62 C-39 61.34 -39 60.68 -39 60 C-38.34 60 -37.68 60 -37 60 C-37 59.34 -37 58.68 -37 58 C-35.02 57.505 -35.02 57.505 -33 57 C-33 56.34 -33 55.68 -33 55 C-32.01 55 -31.02 55 -30 55 C-30.185625 54.21625 -30.37125 53.4325 -30.5625 52.625 C-31 50 -31 50 -30 48 C-28.35 48 -26.7 48 -25 48 C-23 52.75 -23 52.75 -23 55 C-16.92029084 53.69720518 -12.15667301 50.59642179 -8 46 C-6.4184221 42.01167312 -6 39.2900471 -6 35 C-5.979375 33.989375 -5.95875 32.97875 -5.9375 31.9375 C-5.85635633 28.93763763 -5.85635633 28.93763763 -7 26 C-5.68 26 -4.36 26 -3 26 C-3 25.34 -3 24.68 -3 24 C-2.34 24 -1.68 24 -1 24 C-1.01160156 23.18917969 -1.02320313 22.37835938 -1.03515625 21.54296875 C-1.09422542 14.29433826 -0.80842879 7.20367799 0 0 Z " fill="#8F5074" transform="translate(235,48)"/>
<path d="M0 0 C0.66 0 1.32 0 2 0 C2 2.97 2 5.94 2 9 C2.99 9.33 3.98 9.66 5 10 C4.34 10.33 3.68 10.66 3 11 C3.66 12.65 4.32 14.3 5 16 C2.69 16.33 0.38 16.66 -2 17 C-2.66 19.31 -3.32 21.62 -4 24 C-1.66834966 24.33498301 -1.66834966 24.33498301 1 24 C3.87649547 21.69880363 5.55481219 19.3721049 7 16 C9.31 16 11.62 16 14 16 C7.33951931 23.32652876 -0.75997026 28.09321669 -9.625 32.3125 C-10.68122559 32.81873901 -10.68122559 32.81873901 -11.75878906 33.33520508 C-18.68826625 36.5323682 -25.33907417 38.14619214 -33 38.625 C-34.134375 38.69976562 -35.26875 38.77453125 -36.4375 38.8515625 C-37.283125 38.90054688 -38.12875 38.94953125 -39 39 C-39 38.34 -39 37.68 -39 37 C-38.27296875 36.79246094 -37.5459375 36.58492187 -36.796875 36.37109375 C-23.02129722 32.15011543 -9.23015909 24.79383552 -1.86328125 11.8828125 C-0.04380472 7.91454243 0 4.30368631 0 0 Z " fill="#E8DA89" transform="translate(279,144)"/>
<path d="M0 0 C12.25529511 1.63117763 12.25529511 1.63117763 16 6 C16.9375 8.5625 16.9375 8.5625 17 11 C16.01 12.485 16.01 12.485 15 14 C14.01 14 13.02 14 12 14 C12 14.66 12 15.32 12 16 C11.34 16 10.68 16 10 16 C10 16.66 10 17.32 10 18 C8.5390625 19.5078125 8.5390625 19.5078125 6.625 21.125 C5.99851563 21.66382812 5.37203125 22.20265625 4.7265625 22.7578125 C3 24 3 24 1 24 C0.67 24.66 0.34 25.32 0 26 C-0.01417969 25.24074219 -0.02835938 24.48148438 -0.04296875 23.69921875 C-0.18590588 20.72071806 -0.38837227 17.92030703 -1 15 C-3.35547425 12.71204241 -3.35547425 12.71204241 -6 12 C-5.51300383 7.61703444 -4.16604109 5.96816352 -1 3 C-0.67 2.01 -0.34 1.02 0 0 Z " fill="#F9F4F8" transform="translate(248,94)"/>
<path d="M0 0 C7.41624864 -0.07021596 14.83242298 -0.12316792 22.24893951 -0.15543652 C25.69456411 -0.17094162 29.13995758 -0.19189342 32.58544922 -0.22631836 C67.86078834 -0.56960583 67.86078834 -0.56960583 77 4 C77 4.66 77 5.32 77 6 C77.99 6.495 77.99 6.495 79 7 C73.70769231 9.21538462 73.70769231 9.21538462 70.125 8.125 C69.42375 7.75375 68.7225 7.3825 68 7 C68 6.34 68 5.68 68 5 C66.02253397 4.26919734 64.01927511 3.60578253 62 3 C61.34 3.33 60.68 3.66 60 4 C60 3.34 60 2.68 60 2 C53.34296425 2.11741907 46.68609757 2.24225349 40.02929688 2.37231445 C37.76337866 2.4157023 35.49742693 2.45737449 33.23144531 2.49731445 C29.97971482 2.55492385 26.72815364 2.61864502 23.4765625 2.68359375 C22.45881744 2.70030624 21.44107239 2.71701874 20.39248657 2.73423767 C19.45166229 2.75418289 18.51083801 2.77412811 17.54150391 2.79467773 C16.71099518 2.81022202 15.88048645 2.8257663 15.02481079 2.84178162 C12.93121564 2.87765197 12.93121564 2.87765197 11 4 C10.67 4.99 10.34 5.98 10 7 C10.66 7 11.32 7 12 7 C12.33 7.99 12.66 8.98 13 10 C13.99 10.33 14.98 10.66 16 11 C16.33 10.34 16.66 9.68 17 9 C17.66 9.33 18.32 9.66 19 10 C19.25 12.8125 19.25 12.8125 19 16 C17 17.875 17 17.875 15 19 C15 18.01 15 17.02 15 16 C14.01 15.67 13.02 15.34 12 15 C10.60546875 13.109375 10.60546875 13.109375 9.1875 10.75 C6.5475713 6.59492425 3.89321812 3.96626143 0 1 C0 0.67 0 0.34 0 0 Z " fill="#E4DA80" transform="translate(232,23)"/>
<path d="M0 0 C5.61 0 11.22 0 17 0 C18.8615132 7.79508653 19.22573052 14.99910697 19 23 C18.34 22.67 17.68 22.34 17 22 C17.33 21.34 17.66 20.68 18 20 C16.35 20.33 14.7 20.66 13 21 C13 18.33333333 13 15.66666667 13 13 C12.34 13 11.68 13 11 13 C11.33 11.68 11.66 10.36 12 9 C12.66 9 13.32 9 14 9 C13.34 7.02 12.68 5.04 12 3 C10.02 3 8.04 3 6 3 C3.7634477 7.0784189 4.01396783 10.01750503 4.640625 14.44140625 C5.04358684 17.31031936 5.30993975 20.17662768 5.5625 23.0625 C5.64628906 24.00222656 5.73007812 24.94195312 5.81640625 25.91015625 C5.87699219 26.59980469 5.93757813 27.28945312 6 28 C5.34 28 4.68 28 4 28 C3.32246925 24.64793462 2.6599648 21.29306425 2 17.9375 C1.80921875 16.99455078 1.6184375 16.05160156 1.421875 15.08007812 C1.24140625 14.15517578 1.0609375 13.23027344 0.875 12.27734375 C0.70742188 11.43421631 0.53984375 10.59108887 0.3671875 9.72241211 C-0.06630498 6.50839969 0 3.24311448 0 0 Z " fill="#A67A23" transform="translate(271,97)"/>
<path d="M0 0 C-7.42064155 4.96823579 -15.50167731 7.15673466 -24.02075195 9.45507812 C-25.78020133 9.93948555 -27.52617422 10.47225702 -29.26953125 11.01171875 C-34.48102465 12.39235522 -39.7457358 13.25127734 -45.0625 14.125 C-46.65674805 14.39763672 -46.65674805 14.39763672 -48.28320312 14.67578125 C-49.31509766 14.84722656 -50.34699219 15.01867187 -51.41015625 15.1953125 C-52.33965088 15.35016113 -53.26914551 15.50500977 -54.22680664 15.66455078 C-57.176377 16.0213348 -60.03180102 16.05631841 -63 16 C-60.19036647 13.65651021 -58.0996258 12.55543576 -54.5 11.9375 C-53.63246094 11.78539063 -52.76492187 11.63328125 -51.87109375 11.4765625 C-50.92363281 11.31929687 -49.97617188 11.16203125 -49 11 C-47.93910156 10.80148438 -46.87820312 10.60296875 -45.78515625 10.3984375 C-37.38602941 8.87132353 -37.38602941 8.87132353 -34 10 C-33.34 8.68 -32.68 7.36 -32 6 C-31.21625 6.04125 -30.4325 6.0825 -29.625 6.125 C-26.83883881 6.28728734 -26.83883881 6.28728734 -25 4 C-22.27130593 4.03287583 -19.7033382 4.56397771 -17 5 C-17 4.34 -17 3.68 -17 3 C-17.66 2.34 -18.32 1.68 -19 1 C-15.25 -0.125 -15.25 -0.125 -13 1 C-10.20006617 0.63479124 -7.52819391 0.15091254 -4.8125 -0.625 C-3 -1 -3 -1 0 0 Z " fill="#A57480" transform="translate(197,112)"/>
<path d="M0 0 C3.3 0 6.6 0 10 0 C10 0.66 10 1.32 10 2 C8.54894875 3.26669638 7.03646906 4.46339237 5.5 5.625 C0.61594785 9.42370723 -3.73757794 13.52326621 -8 18 C-7.67 18.66 -7.34 19.32 -7 20 C-10.63 19.67 -14.26 19.34 -18 19 C-15.85109241 15.02628236 -13.42109244 12.26010691 -10.0625 9.25 C-9.20785156 8.47140625 -8.35320312 7.6928125 -7.47265625 6.890625 C-5.17142416 5.13107313 -3.8231229 4.39301015 -1 4 C-0.67 2.68 -0.34 1.36 0 0 Z " fill="#C7A8BA" transform="translate(167,6)"/>
<path d="M0 0 C-1.051875 0.721875 -2.10375 1.44375 -3.1875 2.1875 C-6.46193006 4.52168207 -9.18935141 7.11728349 -12 10 C-16.87531384 14.16433058 -21.87152505 18.15364379 -27 22 C-28.67036393 23.32869858 -30.33784732 24.66104368 -32 26 C-33 23 -33 23 -32.3125 21.125 C-29.23817557 16.14752235 -25.79420621 12.98901338 -21.08984375 9.625 C-18.30101544 7.45649051 -15.98768249 4.95220707 -13.640625 2.3203125 C-12 1 -12 1 -8 1 C-7.34 0.649375 -6.68 0.29875 -6 -0.0625 C-3.51983822 -1.22507583 -2.55340568 -0.76070211 0 0 Z " fill="#A97596" transform="translate(238,98)"/>
<path d="M0 0 C2.38761318 3.58141977 2.5948362 6.05856662 3.125 10.3125 C3.29257813 11.60800781 3.46015625 12.90351562 3.6328125 14.23828125 C3.95387402 17.52745407 4.07164371 20.69927182 4 24 C3.443125 24.20625 2.88625 24.4125 2.3125 24.625 C0.02890674 25.98281221 -0.9991561 27.07942786 -2.625 29.125 C-3.40875 30.07375 -4.1925 31.0225 -5 32 C-5.66 32 -6.32 32 -7 32 C-7.33 32.66 -7.66 33.32 -8 34 C-7.26967488 28.03431054 -5.97193448 22.27658572 -4.5625 16.4375 C-4.34529297 15.51775391 -4.12808594 14.59800781 -3.90429688 13.65039062 C-2.79555476 9.01897838 -1.60632866 4.49024894 0 0 Z " fill="#94597F" transform="translate(96,28)"/>
<path d="M0 0 C0.66 0.33 1.32 0.66 2 1 C-2.55167685 11.34472012 -10.389235 23.56343023 -19 31 C-19.66 31 -20.32 31 -21 31 C-21.33 31.66 -21.66 32.32 -22 33 C-22.33 32.67 -22.66 32.34 -23 32 C-22.71269945 29.66055264 -22.38063221 27.3260857 -22 25 C-20.35 25 -18.7 25 -17 25 C-15.3464444 22.02359992 -14.33203198 19.40332785 -14 16 C-14.84979475 13.24743756 -14.84979475 13.24743756 -16 11 C-15.34 10.34 -14.68 9.68 -14 9 C-12.0625 9.375 -12.0625 9.375 -10 10 C-9.01 10 -8.02 10 -7 10 C-7 9.01 -7 8.02 -7 7 C-7 5.68 -7 4.36 -7 3 C-4.69631264 1.93347808 -2.35981813 0.93578995 0 0 Z " fill="#C9AE51" transform="translate(315,127)"/>
<path d="M0 0 C6.0546875 -0.1953125 6.0546875 -0.1953125 8 0 C8.66 0.66 9.32 1.32 10 2 C8.35 2.33 6.7 2.66 5 3 C4.67 3.99 4.34 4.98 4 6 C1.35509259 7.80967349 -0.95417113 8.98472371 -4 10 C-4.433125 10.8971875 -4.433125 10.8971875 -4.875 11.8125 C-6.35344867 14.6872613 -8.46239719 16.04799784 -11 18 C-11.33 18.66 -11.66 19.32 -12 20 C-14.64 20 -17.28 20 -20 20 C-19.8125 18.1875 -19.8125 18.1875 -19 16 C-17.34928604 14.97388051 -15.68029994 13.97691857 -14 13 C-13.34 12.175 -12.68 11.35 -12 10.5 C-9.88364163 7.85455204 -7.91513046 6.65453351 -5 5 C-4.67 4.34 -4.34 3.68 -4 3 C-1.9375 1.875 -1.9375 1.875 0 1 C0 0.67 0 0.34 0 0 Z " fill="#A46F8E" transform="translate(152,4)"/>
<path d="M0 0 C0.99 0.99 1.98 1.98 3 3 C3 2.01 3 1.02 3 0 C3.99 0.33 4.98 0.66 6 1 C4.6297538 4.23184332 3.24964688 5.82544329 0.375 7.8125 C-3.98028874 10.93937397 -8.13912786 14.27261546 -12 18 C-12 18.33 -12 18.66 -12 19 C-14.97 19 -17.94 19 -21 19 C-18.37255738 13.74511477 -15.20915727 8.42097014 -9.64453125 5.95703125 C-8.08902771 5.49773901 -6.52648919 5.06141882 -4.95703125 4.65234375 C-2.33611464 3.77870488 -1.25252634 2.42155092 0 0 Z " fill="#B289A2" transform="translate(243,132)"/>
<path d="M0 0 C0.33 0 0.66 0 1 0 C0.35180847 6.31250158 -0.92936904 12.29408918 -2.5 18.4375 C-2.83837891 19.80165039 -2.83837891 19.80165039 -3.18359375 21.19335938 C-4.86860795 27.86860795 -4.86860795 27.86860795 -6 29 C-8.73894085 29.08858646 -11.4525327 29.11523479 -14.19140625 29.09765625 C-15.01124496 29.0962413 -15.83108368 29.09482635 -16.67576599 29.09336853 C-19.30471382 29.08775289 -21.93357773 29.07519779 -24.5625 29.0625 C-26.34049357 29.05748701 -28.11848846 29.05292376 -29.89648438 29.04882812 C-34.26435545 29.03777839 -38.63216348 29.02050331 -43 29 C-42.67 28.34 -42.34 27.68 -42 27 C-41.11477661 27.00785522 -41.11477661 27.00785522 -40.21166992 27.01586914 C-37.53695745 27.03666047 -34.86226199 27.04966701 -32.1875 27.0625 C-30.7943457 27.07506836 -30.7943457 27.07506836 -29.37304688 27.08789062 C-28.48037109 27.09111328 -27.58769531 27.09433594 -26.66796875 27.09765625 C-25.84578857 27.10289307 -25.0236084 27.10812988 -24.17651367 27.11352539 C-21.81827404 27.08741524 -21.81827404 27.08741524 -19 26 C-17.824375 26.309375 -17.824375 26.309375 -16.625 26.625 C-13.16295521 27.11957783 -11.77811489 25.98436778 -9 24 C-9.495 21.03 -9.495 21.03 -10 18 C-9.071875 17.87625 -9.071875 17.87625 -8.125 17.75 C-5.87019511 17.20664548 -5.87019511 17.20664548 -4.9296875 15.234375 C-3.99058196 12.97736504 -3.45976606 10.89735158 -3 8.5 C-2.3957067 5.3490421 -1.53905905 2.82160825 0 0 Z " fill="#966683" transform="translate(110,154)"/>
<path d="M0 0 C0.7596473 4.55788381 0.7651834 6.79951226 -1.7578125 10.7578125 C-7.46624121 17.54987514 -7.46624121 17.54987514 -11.15625 18.6328125 C-13.0625 18.625 -13.0625 18.625 -16 18 C-16.33 16.35 -16.66 14.7 -17 13 C-16.2575 12.4225 -15.515 11.845 -14.75 11.25 C-12.06403332 9.14099563 -12.06403332 9.14099563 -10.125 7.0625 C-2.84848485 0 -2.84848485 0 0 0 Z " fill="#F3ECF0" transform="translate(219,131)"/>
<path d="M0 0 C3.2542015 2.83430453 4.5206753 4.68607774 5 9 C3.68 9.33 2.36 9.66 1 10 C1 9.34 1 8.68 1 8 C-3.823475 10.55360441 -7.1646925 13.06376335 -11 17 C-11.886875 17.474375 -12.77375 17.94875 -13.6875 18.4375 C-16.75165321 20.50787379 -17.14148605 22.48789749 -18 26 C-18.66 25.67 -19.32 25.34 -20 25 C-19.125 17.375 -19.125 17.375 -18 14 C-16.35 13.67 -14.7 13.34 -13 13 C-12.67 11.68 -12.34 10.36 -12 9 C-11.41605469 8.89558594 -10.83210938 8.79117188 -10.23046875 8.68359375 C-7.66648795 7.89778527 -6.30952143 6.83426088 -4.3125 5.0625 C-3.71050781 4.53785156 -3.10851562 4.01320313 -2.48828125 3.47265625 C-0.89114721 2.0499857 -0.89114721 2.0499857 0 0 Z " fill="#C5A8B9" transform="translate(101,64)"/>
<path d="M0 0 C7.92 0 15.84 0 24 0 C23.67 1.98 23.34 3.96 23 6 C22.34 6 21.68 6 21 6 C20.34 5.01 19.68 4.02 19 3 C18.13375 4.0209375 18.13375 4.0209375 17.25 5.0625 C16.5075 5.701875 15.765 6.34125 15 7 C12.9375 6.6875 12.9375 6.6875 11 6 C10.01 6.33 9.02 6.66 8 7 C8 6.34 8 5.68 8 5 C4.39007621 5.65585189 4.39007621 5.65585189 1 7 C0.67 7.99 0.34 8.98 0 10 C-0.66 10 -1.32 10 -2 10 C-1.125 2.25 -1.125 2.25 0 0 Z " fill="#AD7F27" transform="translate(306,97)"/>
<path d="M0 0 C0.33 0.66 0.66 1.32 1 2 C3.52733235 2.65555119 3.52733235 2.65555119 6 3 C5.625 5.4375 5.625 5.4375 5 8 C4.01 8.495 4.01 8.495 3 9 C3 9.99 3 10.98 3 12 C3.99 12.66 4.98 13.32 6 14 C5.690625 14.598125 5.38125 15.19625 5.0625 15.8125 C3.89790296 18.08956772 3.89790296 18.08956772 3 21 C2.38125 21.144375 1.7625 21.28875 1.125 21.4375 C-1.76135168 22.20153427 -2.26474471 23.59733883 -4 26 C-5.04619048 26.8740666 -6.11004197 27.72728078 -7.1875 28.5625 C-8.115625 29.366875 -9.04375 30.17125 -10 31 C-10 31.99 -10 32.98 -10 34 C-10.66 34 -11.32 34 -12 34 C-12.66 34.66 -13.32 35.32 -14 36 C-14.99 36 -15.98 36 -17 36 C-17.99 36.495 -17.99 36.495 -19 37 C-19.66 36.34 -20.32 35.68 -21 35 C-20.33613281 34.55269531 -19.67226562 34.10539062 -18.98828125 33.64453125 C-14.25588127 30.4043917 -9.84597792 27.29844591 -6 23 C-4.9171875 21.7934375 -4.9171875 21.7934375 -3.8125 20.5625 C0.74673614 14.11668338 0.22140226 7.60147763 0 0 Z M-23 36 C-21 37 -21 37 -21 37 Z " fill="#A87E97" transform="translate(206,51)"/>
<path d="M0 0 C1.65 0 3.3 0 5 0 C7 4.75 7 4.75 7 7 C9.93703384 6.37063561 12.33788628 5.37579827 15 4 C11.72469104 8.63720719 8.69564393 12.68542782 4 16 C2.56911472 13.13822943 3.40008303 11.06624227 4 8 C3.31292969 8.51691406 2.62585938 9.03382812 1.91796875 9.56640625 C1.01691406 10.22511719 0.11585938 10.88382813 -0.8125 11.5625 C-1.70582031 12.22378906 -2.59914062 12.88507813 -3.51953125 13.56640625 C-4.33808594 14.03949219 -5.15664062 14.51257813 -6 15 C-6.99 14.67 -7.98 14.34 -9 14 C-9 13.34 -9 12.68 -9 12 C-8.34 12 -7.68 12 -7 12 C-7 11.34 -7 10.68 -7 10 C-5.68 9.67 -4.36 9.34 -3 9 C-3 8.34 -3 7.68 -3 7 C-2.01 7 -1.02 7 0 7 C-0.2784375 5.824375 -0.2784375 5.824375 -0.5625 4.625 C-1 2 -1 2 0 0 Z " fill="#814066" transform="translate(205,96)"/>
<path d="M0 0 C1.11328125 1.7578125 1.11328125 1.7578125 2 4 C0.15737099 10.10911901 -4.70486014 13.50683969 -9.90625 16.6796875 C-12.27995681 18.17653993 -14.14279081 19.90054613 -16 22 C-16.99 21.34 -17.98 20.68 -19 20 C-16.82639107 14.62990734 -13.7403502 11.22115363 -9 8 C-8.34 8 -7.68 8 -7 8 C-7 7.34 -7 6.68 -7 6 C-6.34 6 -5.68 6 -5 6 C-5 5.34 -5 4.68 -5 4 C-4.01 4 -3.02 4 -2 4 C-1.34 2.68 -0.68 1.36 0 0 Z " fill="#D3B6C9" transform="translate(265,104)"/>
<path d="M0 0 C0 0.66 0 1.32 0 2 C-1.28197266 2.07347656 -1.28197266 2.07347656 -2.58984375 2.1484375 C-3.69457031 2.22320312 -4.79929688 2.29796875 -5.9375 2.375 C-7.03964844 2.44460937 -8.14179688 2.51421875 -9.27734375 2.5859375 C-10.62505859 2.79089844 -10.62505859 2.79089844 -12 3 C-12.33 3.66 -12.66 4.32 -13 5 C-17.94383313 5.0498757 -22.88751599 5.08594211 -27.83154297 5.10986328 C-29.50930334 5.11984803 -31.18704664 5.13344057 -32.86474609 5.15087891 C-41.83615457 5.24171508 -50.24818279 5.26370832 -59 3 C-59 2.67 -59 2.34 -59 2 C-58.1500798 1.9845388 -58.1500798 1.9845388 -57.2829895 1.96876526 C-51.34481007 1.85994112 -45.40675944 1.74541289 -39.46875 1.62768555 C-37.2575146 1.58457808 -35.04625107 1.54288784 -32.83496094 1.50268555 C-29.64249217 1.44439205 -26.45016188 1.38087307 -23.2578125 1.31640625 C-22.28135773 1.29969376 -21.30490295 1.28298126 -20.29885864 1.26576233 C-14.82315122 1.14960421 -9.43072374 0.81720894 -3.98703003 0.20762634 C-2 0 -2 0 0 0 Z " fill="#CDB670" transform="translate(256,161)"/>
<path d="M0 0 C3 2 3 2 3.51171875 4.1640625 C3.59873047 5.38222656 3.59873047 5.38222656 3.6875 6.625 C3.78611328 7.85089844 3.78611328 7.85089844 3.88671875 9.1015625 C3.92410156 9.72804688 3.96148437 10.35453125 4 11 C2.96875 11.020625 1.9375 11.04125 0.875 11.0625 C-4.24419815 12.30101568 -6.0329289 14.83740574 -9 19 C-11 17 -11 17 -11.3984375 14.69921875 C-10.85062917 10.98808588 -9.19908661 9.4962086 -6.625 6.8125 C-5.81289062 5.95269531 -5.00078125 5.09289063 -4.1640625 4.20703125 C-2.78264368 2.79818354 -1.39520067 1.39520067 0 0 Z " fill="#A47191" transform="translate(98,51)"/>
<path d="M0 0 C0.33 0 0.66 0 1 0 C1.39959831 7.9919662 0.08185243 12.67259028 -2 21 C-10.25 21 -18.5 21 -27 21 C-26.67 18.36 -26.34 15.72 -26 13 C-25.34 13.33 -24.68 13.66 -24 14 C-24 15.65 -24 17.3 -24 19 C-19.05 19.33 -14.1 19.66 -9 20 C-9.020625 18.55625 -9.04125 17.1125 -9.0625 15.625 C-9.125 11.25 -9.125 11.25 -8 9 C-7.34 9 -6.68 9 -6 9 C-5.01879536 12.05263664 -5.01879536 13.94736336 -6 17 C-5.34 17 -4.68 17 -4 17 C-3.86722656 16.30519531 -3.73445313 15.61039063 -3.59765625 14.89453125 C-2.95897084 11.80129014 -2.21143636 8.74959602 -1.4375 5.6875 C-1.16808594 4.61886719 -0.89867187 3.55023438 -0.62109375 2.44921875 C-0.41613281 1.64097656 -0.21117187 0.83273438 0 0 Z " fill="#A97A1B" transform="translate(334,71)"/>
<path d="M0 0 C-0.33 0.66 -0.66 1.32 -1 2 C-2.32 2 -3.64 2 -5 2 C-5.33 2.99 -5.66 3.98 -6 5 C-6.7425 5.433125 -7.485 5.86625 -8.25 6.3125 C-11.60338574 8.37025943 -13.50013002 10.98733618 -16 14 C-18.25 15.25 -18.25 15.25 -20 16 C-20.33 16.66 -20.66 17.32 -21 18 C-23.64 18 -26.28 18 -29 18 C-28.38125 17.7525 -27.7625 17.505 -27.125 17.25 C-24.87089861 16.19738185 -24.87089861 16.19738185 -24.1328125 14.1015625 C-22.72434053 11.48860416 -21.27774878 10.64680794 -18.75 9.125 C-15.69746122 7.19630589 -13.11898961 5.30054942 -10.625 2.6875 C-6.90056795 -1.125609 -4.96036458 -1.20657517 0 0 Z " fill="#94597D" transform="translate(153,5)"/>
<path d="M0 0 C1 3 1 3 0.1015625 5.05078125 C-5.98452469 14.37312115 -13.29154299 18.45143194 -24 21 C-24 20.34 -24 19.68 -24 19 C-22.34467377 17.98133771 -20.67739862 16.98189187 -19 16 C-18.67 15.34 -18.34 14.68 -18 14 C-13.5 11 -13.5 11 -11 11 C-10.7525 10.360625 -10.505 9.72125 -10.25 9.0625 C-9.63125 8.0415625 -9.63125 8.0415625 -9 7 C-8.401875 6.87625 -7.80375 6.7525 -7.1875 6.625 C-3.63813723 5.61089635 -2.20678922 2.88108593 0 0 Z " fill="#834E6C" transform="translate(263,129)"/>
<path d="M0 0 C5.61 0 11.22 0 17 0 C16.67 0.66 16.34 1.32 16 2 C13.71484375 2.4140625 13.71484375 2.4140625 10.9375 2.625 C9.55884766 2.73714844 9.55884766 2.73714844 8.15234375 2.8515625 C7.44207031 2.90054688 6.73179687 2.94953125 6 3 C3.7634477 7.0784189 4.01396783 10.01750503 4.640625 14.44140625 C5.04358684 17.31031936 5.30993975 20.17662768 5.5625 23.0625 C5.64628906 24.00222656 5.73007812 24.94195312 5.81640625 25.91015625 C5.87699219 26.59980469 5.93757813 27.28945312 6 28 C5.34 28 4.68 28 4 28 C3.32246925 24.64793462 2.6599648 21.29306425 2 17.9375 C1.80921875 16.99455078 1.6184375 16.05160156 1.421875 15.08007812 C1.24140625 14.15517578 1.0609375 13.23027344 0.875 12.27734375 C0.70742188 11.43421631 0.53984375 10.59108887 0.3671875 9.72241211 C-0.06630498 6.50839969 0 3.24311448 0 0 Z " fill="#A57C32" transform="translate(271,97)"/>
<path d="M0 0 C-0.93441535 1.27310312 -1.87267111 2.543388 -2.8125 3.8125 C-3.33457031 4.52019531 -3.85664063 5.22789062 -4.39453125 5.95703125 C-5.83128877 7.78531393 -7.31815763 9.39896688 -9 11 C-9.99 10.67 -10.98 10.34 -12 10 C-12 9.01 -12 8.02 -12 7 C-12.5775 7.350625 -13.155 7.70125 -13.75 8.0625 C-16.35801776 9.14917407 -17.39417629 8.93065133 -20 8 C-19.67 7.01 -19.34 6.02 -19 5 C-17.02 5 -15.04 5 -13 5 C-13 4.34 -13 3.68 -13 3 C-11.40084119 2.30093058 -9.79544955 1.61610532 -8.1875 0.9375 C-7.29417969 0.55464844 -6.40085937 0.17179688 -5.48046875 -0.22265625 C-3 -1 -3 -1 0 0 Z " fill="#DDC66A" transform="translate(269,158)"/>
<path d="M0 0 C0.33 0.99 0.66 1.98 1 3 C1.99 3.33 2.98 3.66 4 4 C3.34 5.32 2.68 6.64 2 8 C1.34 7.01 0.68 6.02 0 5 C-2.45489316 10.12325529 -3.50341703 14.33895411 -4 20 C-4.66 20 -5.32 20 -6 20 C-6 20.66 -6 21.32 -6 22 C-5.34 22.33 -4.68 22.66 -4 23 C-4.33 24.98 -4.66 26.96 -5 29 C-6.32 28.34 -7.64 27.68 -9 27 C-8.39700836 19.76410027 -6.8849413 13.00629124 -5 6 C-4.34 6 -3.68 6 -3 6 C-2.690625 5.195625 -2.38125 4.39125 -2.0625 3.5625 C-1 1 -1 1 0 0 Z " fill="#A47B2C" transform="translate(144,128)"/>
<path d="M0 0 C4.49825874 -0.07501586 8.99617127 -0.12900383 13.49487305 -0.16479492 C15.02032832 -0.17973934 16.54574172 -0.20010247 18.07104492 -0.22631836 C27.18809893 -0.37891756 35.29479994 -0.13840094 44 3 C44 3.66 44 4.32 44 5 C44.66 5.33 45.32 5.66 46 6 C40.70769231 8.21538462 40.70769231 8.21538462 37.125 7.125 C36.42375 6.75375 35.7225 6.3825 35 6 C35 5.34 35 4.68 35 4 C33.02253397 3.26919734 31.01927511 2.60578253 29 2 C28.01 2.495 28.01 2.495 27 3 C27 2.34 27 1.68 27 1 C18.09 1 9.18 1 0 1 C0 0.67 0 0.34 0 0 Z " fill="#DFD371" transform="translate(265,24)"/>
<path d="M0 0 C0 0.66 0 1.32 0 2 C-0.99 2.33 -1.98 2.66 -3 3 C-2.67 3.66 -2.34 4.32 -2 5 C-4.64738916 6.4606285 -5.89448334 7 -9 7 C-9.33 7.99 -9.66 8.98 -10 10 C-11.7421875 11.203125 -11.7421875 11.203125 -13.875 12.25 C-14.57367188 12.60578125 -15.27234375 12.9615625 -15.9921875 13.328125 C-18 14 -18 14 -21 13 C-6.5841126 -2.47645677 -6.5841126 -2.47645677 0 0 Z " fill="#A4799E" transform="translate(22,34)"/>
<path d="M0 0 C1.051875 0.185625 2.10375 0.37125 3.1875 0.5625 C6.60938035 0.95517479 8.71785136 0.7502054 12 0 C12.66 0.33 13.32 0.66 14 1 C13 3 13 3 11.20922852 3.63842773 C10.44022217 3.81833252 9.67121582 3.9982373 8.87890625 4.18359375 C7.60563477 4.48982666 7.60563477 4.48982666 6.30664062 4.80224609 C5.40107422 5.01187988 4.49550781 5.22151367 3.5625 5.4375 C1.72998111 5.87426113 -0.10205776 6.31304153 -1.93359375 6.75390625 C-2.81257324 6.96547363 -3.69155273 7.17704102 -4.59716797 7.39501953 C-8.16616645 8.29361517 -11.65182839 9.40413124 -15.125 10.6171875 C-17.37087671 11.07572066 -18.84145429 10.70345463 -21 10 C-16.4271226 7.95679946 -11.85261631 6.24219589 -7.08984375 4.6953125 C-4.68382248 3.89480449 -2.33812254 2.980503 0 2 C0 1.34 0 0.68 0 0 Z " fill="#96688B" transform="translate(48,26)"/>
<path d="M0 0 C0.66 0.33 1.32 0.66 2 1 C2.20086443 4.71599191 2.1519437 5.77208445 0 9 C0.70382813 8.92998779 1.40765625 8.85997559 2.1328125 8.7878418 C10.10070563 8.05255401 18.00070651 7.81690975 26 7.8125 C27.20011719 7.80025391 28.40023437 7.78800781 29.63671875 7.77539062 C30.78785156 7.77345703 31.93898437 7.77152344 33.125 7.76953125 C34.15882813 7.76542236 35.19265625 7.76131348 36.2578125 7.75708008 C39 8 39 8 43 10 C28.15 10 13.3 10 -2 10 C-1.34 6.7 -0.68 3.4 0 0 Z " fill="#C8B56C" transform="translate(129,173)"/>
<path d="M0 0 C0.99 0.33 1.98 0.66 3 1 C2.25 3.9375 2.25 3.9375 1 7 C0.40445313 7.13921875 -0.19109375 7.2784375 -0.8046875 7.421875 C-3.90096122 8.23726381 -5.20872933 9.99040986 -7.375 12.3125 C-9.93290607 14.9757564 -12.27859037 17.38766072 -15.4375 19.3125 C-18.06034539 21.03973965 -18.95889209 22.08489784 -20 25 C-21 22 -21 22 -20.27734375 20.00390625 C-18.9004516 17.84382773 -17.54649346 16.55026808 -15.5625 14.9375 C-10.0482321 10.28642321 -5.05442686 5.13804789 0 0 Z " fill="#8D4E72" transform="translate(228,93)"/>
<path d="M0 0 C-8.4494261 5.32728674 -17.8660101 9.41022148 -28 9 C-27.505 8.54625 -27.01 8.0925 -26.5 7.625 C-24.77390663 6.12364481 -24.77390663 6.12364481 -25 4 C-22.36 4.33 -19.72 4.66 -17 5 C-17 4.34 -17 3.68 -17 3 C-17.66 2.34 -18.32 1.68 -19 1 C-15.25 -0.125 -15.25 -0.125 -13 1 C-10.20006617 0.63479124 -7.52819391 0.15091254 -4.8125 -0.625 C-3 -1 -3 -1 0 0 Z " fill="#8F5165" transform="translate(197,112)"/>
<path d="M0 0 C0.66 0.66 1.32 1.32 2 2 C1.67 2.99 1.34 3.98 1 5 C0.34 5 -0.32 5 -1 5 C-1.99 5.33 -2.98 5.66 -4 6 C-4.29132813 6.58523437 -4.58265625 7.17046875 -4.8828125 7.7734375 C-6.37007819 10.73756843 -8.40130126 12.43023465 -10.875 14.625 C-12.17050781 15.78902344 -12.17050781 15.78902344 -13.4921875 16.9765625 C-15.63154679 18.70271221 -17.49339953 19.91574957 -20 21 C-19.875 18.8125 -19.875 18.8125 -19 16 C-17.04072937 14.2856382 -15.04119788 12.61594832 -13 11 C-12.67 10.01 -12.34 9.02 -12 8 C-10.00934459 6.98152514 -8.00751815 5.98482022 -6 5 C-3.90233594 3.4232006 -1.97171586 1.73698779 0 0 Z " fill="#D7C0CE" transform="translate(221,119)"/>
<path d="M0 0 C0.33 0.99 0.66 1.98 1 3 C-2.63009921 6.73219575 -6.32894334 10.37840926 -10.1875 13.875 C-10.82042969 14.44992188 -11.45335937 15.02484375 -12.10546875 15.6171875 C-14.09557934 17.06976306 -15.59173534 17.58349303 -18 18 C-18 16.68 -18 15.36 -18 14 C-16.27734375 12.32421875 -16.27734375 12.32421875 -13.9375 10.6875 C-10.02693631 7.83784634 -6.70087328 4.82481641 -3.41015625 1.28515625 C-2 0 -2 0 0 0 Z " fill="#9B6184" transform="translate(228,99)"/>
<path d="M0 0 C2.34770643 3.52155964 2.37669614 5.50771843 2.625 9.6875 C2.69976562 10.86699219 2.77453125 12.04648437 2.8515625 13.26171875 C2.90054688 14.16535156 2.94953125 15.06898437 3 16 C2.38125 16.28875 1.7625 16.5775 1.125 16.875 C-1.13325765 17.93720042 -1.13325765 17.93720042 -3 20 C-3.6425235 22.06874034 -3.6425235 22.06874034 -4 24 C-4.66 24 -5.32 24 -6 24 C-5.37899527 21.1240849 -4.75333835 18.24931373 -4.125 15.375 C-3.95097656 14.56675781 -3.77695313 13.75851563 -3.59765625 12.92578125 C-2.62929775 8.51437032 -1.5300773 4.25940436 0 0 Z " fill="#7D4366" transform="translate(96,28)"/>
<path d="M0 0 C0.66 0 1.32 0 2 0 C2 2.97 2 5.94 2 9 C2.99 9.33 3.98 9.66 5 10 C4.01 10.495 4.01 10.495 3 11 C3.66 12.65 4.32 14.3 5 16 C3.948125 16.04125 2.89625 16.0825 1.8125 16.125 C-3.2017578 17.27581326 -4.00327189 18.97582225 -7 23 C-7.66 23 -8.32 23 -9 23 C-9 23.66 -9 24.32 -9 25 C-9.99 24.67 -10.98 24.34 -12 24 C-11.46890625 23.443125 -10.9378125 22.88625 -10.390625 22.3125 C-2.48008639 13.87813361 -2.48008639 13.87813361 0.25 3 C0.12625 1.515 0.12625 1.515 0 0 Z " fill="#DAC06E" transform="translate(279,144)"/>
<path d="M0 0 C0 0.99 0 1.98 0 3 C-1.42754792 4.26155397 -2.86514388 5.51454776 -4.36328125 6.69140625 C-6.76656601 8.6128869 -8.85094389 10.79977589 -11 13 C-12.35101868 14.3780932 -13.70542304 15.75287228 -15.0625 17.125 C-15.71347656 17.78757813 -16.36445313 18.45015625 -17.03515625 19.1328125 C-19 21 -19 21 -21.12109375 22.5546875 C-23.25715598 24.03766292 -23.25715598 24.03766292 -25 27 C-26.65438613 27.69658363 -28.32254318 28.36096883 -30 29 C-31.36365283 29.95824253 -32.70794169 30.94721175 -34 32 C-34.33 31.34 -34.66 30.68 -35 30 C-24.20740223 21.01256983 -24.20740223 21.01256983 -20.625 18.75 C-17.65307902 16.76871935 -15.47045698 14.58536196 -13 12 C-11.48378654 10.45378951 -9.96254301 8.91250251 -8.4375 7.375 C-7.69371094 6.61960937 -6.94992187 5.86421875 -6.18359375 5.0859375 C-4.21348875 3.20394095 -2.21659498 1.57825584 0 0 Z " fill="#AA7796" transform="translate(265,119)"/>
<path d="M0 0 C1.32 0.33 2.64 0.66 4 1 C3.49396008 3.16874252 3.00016187 4.99967627 2 7 C1.01 7 0.02 7 -1 7 C-1 7.66 -1 8.32 -1 9 C-1.66 9 -2.32 9 -3 9 C-3 9.66 -3 10.32 -3 11 C-4.4609375 12.5078125 -4.4609375 12.5078125 -6.375 14.125 C-7.00148437 14.66382812 -7.62796875 15.20265625 -8.2734375 15.7578125 C-10 17 -10 17 -12 17 C-12.33 17.66 -12.66 18.32 -13 19 C-13 18.01 -13 17.02 -13 16 C-12.34 16 -11.68 16 -11 16 C-10.9278125 15.26007813 -10.855625 14.52015625 -10.78125 13.7578125 C-9.78738737 10.24947742 -8.31168199 9.14392059 -5.5 6.875 C-1.89364349 4.0552578 -1.89364349 4.0552578 0 0 Z " fill="#E7DBE1" transform="translate(261,101)"/>
<path d="M0 0 C-2.30764598 4.12947175 -4.65872339 7.65872339 -8 11 C-11.3125 11.375 -11.3125 11.375 -14 11 C-14 8 -14 8 -11.75 5.5 C-5.22137405 -0.4351145 -5.22137405 -0.4351145 0 0 Z " fill="#D4BCCB" transform="translate(230,140)"/>
<path d="M0 0 C0 0.66 0 1.32 0 2 C1.6396875 1.443125 1.6396875 1.443125 3.3125 0.875 C4.529375 0.58625 5.74625 0.2975 7 0 C7.99 0.66 8.98 1.32 10 2 C0.77448747 8.70387244 0.77448747 8.70387244 -5 9 C-4.625 6.5625 -4.625 6.5625 -4 4 C-3.34 3.67 -2.68 3.34 -2 3 C-2.99 2.34 -3.98 1.68 -5 1 C-3 0 -3 0 0 0 Z " fill="#E1D377" transform="translate(249,168)"/>
<path d="M0 0 C0.33 1.32 0.66 2.64 1 4 C0.46375 4.061875 -0.0725 4.12375 -0.625 4.1875 C-3.28968144 4.93695013 -3.28968144 4.93695013 -5.9375 7.5 C-8.89147 9.91140408 -10.29299037 10.67291091 -14 11 C-14.061875 11.5775 -14.12375 12.155 -14.1875 12.75 C-15.32027301 15.88690987 -17.34197595 17.09167504 -20 19 C-21.60031344 15.79937313 -20.03173691 13.27728194 -19 10 C-18.01 10.33 -17.02 10.66 -16 11 C-14.9171875 9.824375 -14.9171875 9.824375 -13.8125 8.625 C-11.06810888 6.06356829 -9.43428549 5.25644591 -6 4 C-3.97681922 2.70211044 -1.97133986 1.37535339 0 0 Z " fill="#C4A6B8" transform="translate(223,116)"/>
<path d="M0 0 C0.33 0.66 0.66 1.32 1 2 C-2.04880891 8.09761782 -5.60204822 12.60076808 -12 15 C-14.77152212 17.52056045 -14.77152212 17.52056045 -17 20 C-17.66 19.67 -18.32 19.34 -19 19 C-16.76353074 16.50833011 -14.50867398 14.03404504 -12.25 11.5625 C-11.61578125 10.85544922 -10.9815625 10.14839844 -10.328125 9.41992188 C-9.709375 8.74638672 -9.090625 8.07285156 -8.453125 7.37890625 C-7.88754883 6.7557251 -7.32197266 6.13254395 -6.73925781 5.49047852 C-5 4 -5 4 -2.84667969 3.47631836 C-2.23727539 3.3191333 -1.62787109 3.16194824 -1 3 C-0.67 2.01 -0.34 1.02 0 0 Z " fill="#996184" transform="translate(265,123)"/>
<path d="M0 0 C2.97 0.495 2.97 0.495 6 1 C5.41781807 4.50861642 4.18286308 6.24929353 1.6875 8.75 C0.79611328 9.67039062 0.79611328 9.67039062 -0.11328125 10.609375 C-2 12 -2 12 -6 12 C-5.51300383 7.61703444 -4.16604109 5.96816352 -1 3 C-0.67 2.01 -0.34 1.02 0 0 Z " fill="#DBC5D2" transform="translate(248,94)"/>
<path d="M0 0 C0 0.66 0 1.32 0 2 C-4.4840341 2.04951788 -8.96792239 2.08577526 -13.45214844 2.10986328 C-14.97691623 2.11990744 -16.50166484 2.13354531 -18.02636719 2.15087891 C-20.22075138 2.17519738 -22.41488042 2.18649889 -24.609375 2.1953125 C-26.5888916 2.21102295 -26.5888916 2.21102295 -28.60839844 2.22705078 C-31.73220559 2.0179275 -33.40580238 1.66605136 -36 0 C-23.87894579 -0.93128667 -12.12105421 -0.93128667 0 0 Z " fill="#D2C279" transform="translate(204,181)"/>
<path d="M0 0 C0.61875 0.7734375 0.61875 0.7734375 1.25 1.5625 C0.610625 1.830625 -0.02875 2.09875 -0.6875 2.375 C-3.08131686 3.44917752 -3.08131686 3.44917752 -3.75 6.5625 C-7.30802344 8.8450056 -10.52246293 10.88609407 -14.75 11.5625 C-13.32849991 8.43097752 -11.61435776 5.98106482 -9.375 3.375 C-8.78976563 2.68019531 -8.20453125 1.98539063 -7.6015625 1.26953125 C-4.99792848 -1.13086552 -2.9285539 -2.40559784 0 0 Z " fill="#BD9AB0" transform="translate(236.75,139.4375)"/>
<path d="M0 0 C0 3 0 3 -1.79296875 4.83203125 C-2.97826172 5.81236328 -2.97826172 5.81236328 -4.1875 6.8125 C-7.03483417 9.23072258 -9.59133457 11.54177493 -11.875 14.5 C-12.926875 15.7375 -12.926875 15.7375 -14 17 C-14.99 17 -15.98 17 -17 17 C-17 15.35 -17 13.7 -17 12 C-16.01 11.67 -15.02 11.34 -14 11 C-13.195625 10.175 -12.39125 9.35 -11.5625 8.5 C-9.02184182 6.02130909 -8.2511255 5.69666975 -5 5 C-4.67 4.01 -4.34 3.02 -4 2 C-1.9375 0.8125 -1.9375 0.8125 0 0 Z " fill="#BA8EA8" transform="translate(222,111)"/>
<path d="M0 0 C1.65 1.32 3.3 2.64 5 4 C4.443125 5.36125 4.443125 5.36125 3.875 6.75 C2.69640701 9.88097015 2.69640701 9.88097015 3.875 12.375 C4.24625 12.91125 4.6175 13.4475 5 14 C4.01 14 3.02 14 2 14 C2 13.34 2 12.68 2 12 C1.01 12.495 1.01 12.495 0 13 C-0.33 13.99 -0.66 14.98 -1 16 C-2 19 -2 19 -4 20 C-2.82144268 13.29225357 -1.52351686 6.63818061 0 0 Z " fill="#AE8538" transform="translate(134,153)"/>
<path d="M0 0 C1.32612202 2.65224404 0.74159076 3.72752828 0.00390625 6.5703125 C-0.33930664 7.91416016 -0.33930664 7.91416016 -0.68945312 9.28515625 C-0.93630859 10.22230469 -1.18316406 11.15945312 -1.4375 12.125 C-1.68048828 13.06988281 -1.92347656 14.01476562 -2.17382812 14.98828125 C-2.77628228 17.32722091 -3.38525035 19.66426741 -4 22 C-4.99 21.67 -5.98 21.34 -7 21 C-8.37407134 18.14615953 -7.95284958 16.8365452 -7.0625 13.75 C-6.711875 12.8425 -6.36125 11.935 -6 11 C-6.66 10.34 -7.32 9.68 -8 9 C-7 8 -7 8 -4.4375 7.9375 C-3.2309375 7.9684375 -3.2309375 7.9684375 -2 8 C-1.855625 6.865625 -1.71125 5.73125 -1.5625 4.5625 C-1 1 -1 1 0 0 Z " fill="#A98196" transform="translate(116,132)"/>
<path d="M0 0 C0.66 0 1.32 0 2 0 C2 0.99 2 1.98 2 3 C3.32 2.67 4.64 2.34 6 2 C8.33572533 8.09883837 7.73884668 11.72083143 6 18 C9.63 18 13.26 18 17 18 C17 18.33 17 18.66 17 19 C13.04 19 9.08 19 5 19 C4.80664062 18.13117187 4.61328125 17.26234375 4.4140625 16.3671875 C4.15367187 15.21476562 3.89328125 14.06234375 3.625 12.875 C3.36976563 11.73804688 3.11453125 10.60109375 2.8515625 9.4296875 C2.05363523 6.21601712 1.09209441 3.12433966 0 0 Z " fill="#D0BF68" transform="translate(245,39)"/>
<path d="M0 0 C-0.99 0.99 -1.98 1.98 -3 3 C-3.99 2.67 -4.98 2.34 -6 2 C-6.66 2.66 -7.32 3.32 -8 4 C-8.99 4 -9.98 4 -11 4 C-13.69290446 4.57668317 -16.3349698 5.30097568 -19 6 C-19.33 7.65 -19.66 9.3 -20 11 C-22.95950142 9.62594577 -25.41495396 7.98223068 -28 6 C-24.65034883 4.98443582 -21.29466389 3.99041911 -17.9375 3 C-16.99455078 2.71382812 -16.05160156 2.42765625 -15.08007812 2.1328125 C-9.8703281 0.60800761 -5.42970917 -0.36147856 0 0 Z " fill="#98668B" transform="translate(80,11)"/>
<path d="M0 0 C5.94 0 11.88 0 18 0 C18 0.33 18 0.66 18 1 C16.91332031 1.14695312 16.91332031 1.14695312 15.8046875 1.296875 C9.90101768 2.20997593 5.55893663 3.04092345 1 7 C0.67 7.99 0.34 8.98 0 10 C-0.66 10 -1.32 10 -2 10 C-1.125 2.25 -1.125 2.25 0 0 Z " fill="#A27D31" transform="translate(306,97)"/>
<path d="M0 0 C0.66 0.99 1.32 1.98 2 3 C0.21429094 5.67856359 -1.67078007 7.59910148 -4.1875 9.5625 C-5.115625 10.366875 -6.04375 11.17125 -7 12 C-7 12.99 -7 13.98 -7 15 C-7.66 15 -8.32 15 -9 15 C-9.66 15.66 -10.32 16.32 -11 17 C-11.99 17 -12.98 17 -14 17 C-14.66 17.33 -15.32 17.66 -16 18 C-16.66 17.34 -17.32 16.68 -18 16 C-17.33613281 15.55269531 -16.67226562 15.10539062 -15.98828125 14.64453125 C-9.76561816 10.38405097 -4.38039314 6.2247692 0 0 Z M-20 17 C-18 18 -18 18 -18 18 Z " fill="#A17893" transform="translate(203,70)"/>
<path d="M0 0 C19.47 0 38.94 0 59 0 C59 0.33 59 0.66 59 1 C51.22209355 1.14279708 43.44417943 1.28517039 35.66625977 1.42724609 C33.01912255 1.47565052 30.37198712 1.52415272 27.72485352 1.57275391 C23.92464656 1.64250859 20.12443337 1.7119141 16.32421875 1.78125 C14.54285774 1.81406067 14.54285774 1.81406067 12.72550964 1.84753418 C11.62459488 1.86755493 10.52368011 1.88757568 9.3894043 1.90820312 C7.93379341 1.93485046 7.93379341 1.93485046 6.44877625 1.96203613 C4.63269165 1.99019126 2.81630283 2 1 2 C0.67 1.34 0.34 0.68 0 0 Z " fill="#DDD495" transform="translate(232,23)"/>
<path d="M0 0 C0.66 1.32 1.32 2.64 2 4 C0.73147606 5.60599349 -0.539911 7.20972575 -1.8125 8.8125 C-2.87404297 10.15248047 -2.87404297 10.15248047 -3.95703125 11.51953125 C-7.17323031 15.42447657 -7.17323031 15.42447657 -9 17 C-9.66 17 -10.32 17 -11 17 C-11.33 17.66 -11.66 18.32 -12 19 C-12.33 18.67 -12.66 18.34 -13 18 C-12.71269945 15.66055264 -12.38063221 13.3260857 -12 11 C-11.278125 11.144375 -10.55625 11.28875 -9.8125 11.4375 C-7.00496132 11.28996356 -7.00496132 11.28996356 -5.625 9.58203125 C-3.45202015 6.54891354 -1.50576961 3.42220366 0 0 Z " fill="#D1C074" transform="translate(305,141)"/>
<path d="M0 0 C0.33 1.32 0.66 2.64 1 4 C-0.61949042 5.50594681 -2.24575974 7.00460668 -3.875 8.5 C-4.77992188 9.3353125 -5.68484375 10.170625 -6.6171875 11.03125 C-9 13 -9 13 -11 13 C-11 13.66 -11 14.32 -11 15 C-11.99 15 -12.98 15 -14 15 C-13.75674469 11.71605327 -12.87057281 10.88289921 -10.375 8.625 C-9.25073507 7.74905572 -8.12567017 6.87413767 -7 6 C-5.70268684 4.90247307 -4.41094429 3.79832586 -3.125 2.6875 C-2.23167969 1.91986328 -2.23167969 1.91986328 -1.3203125 1.13671875 C-0.88460937 0.76160156 -0.44890625 0.38648438 0 0 Z " fill="#FCF7FA" transform="translate(217,134)"/>
<path d="M0 0 C0.66 0.33 1.32 0.66 2 1 C1.34 1.66 0.68 2.32 0 3 C2.31 3 4.62 3 7 3 C1.59078974 8.40921026 -8.84212939 7.58536725 -16 8 C-16 7.34 -16 6.68 -16 6 C-14.77023438 5.60167969 -14.77023438 5.60167969 -13.515625 5.1953125 C-12.43796875 4.84210938 -11.3603125 4.48890625 -10.25 4.125 C-9.18265625 3.77695313 -8.1153125 3.42890625 -7.015625 3.0703125 C-4.06935483 2.106061 -4.06935483 2.106061 -1.734375 0.8046875 C-1.16203125 0.53914062 -0.5896875 0.27359375 0 0 Z " fill="#E9DC94" transform="translate(256,175)"/>
<path d="M0 0 C1 2 1 2 0.875 3.9375 C-0.36322935 6.85618347 -2.26677251 7.50323256 -5 9 C-6.02104551 9.97850195 -7.0206121 10.97980427 -8 12 C-8.804375 12.639375 -9.60875 13.27875 -10.4375 13.9375 C-13.0142523 15.9152926 -13.0142523 15.9152926 -15.0625 18.1875 C-17.09754283 20.09124975 -18.28148409 20.61164058 -21 21 C-20.67 19.35 -20.34 17.7 -20 16 C-19.05125 15.9175 -18.1025 15.835 -17.125 15.75 C-16.09375 15.5025 -15.0625 15.255 -14 15 C-13.54560547 14.07767578 -13.54560547 14.07767578 -13.08203125 13.13671875 C-11.70056422 10.40869541 -10.17229502 9.60952135 -7.5625 8.0625 C-3.97040693 5.79289779 -1.76135707 3.99240935 0 0 Z " fill="#C4A3B7" transform="translate(266,109)"/>
<path d="M0 0 C3.77143982 0.1097568 7.54187097 0.24041479 11.3125 0.375 C12.9202832 0.42140625 12.9202832 0.42140625 14.56054688 0.46875 C15.58857422 0.50742188 16.61660156 0.54609375 17.67578125 0.5859375 C18.62364502 0.6173584 19.57150879 0.6487793 20.5480957 0.68115234 C23 1 23 1 26 3 C16.595 3.495 16.595 3.495 7 4 C6.67 4.66 6.34 5.32 6 6 C3.75633004 4.87816502 1.92664134 3.60553445 0 2 C0 1.34 0 0.68 0 0 Z " fill="#C0A560" transform="translate(174,162)"/>
<path d="M0 0 C1.65 0 3.3 0 5 0 C4.67 0.99 4.34 1.98 4 3 C3.34 3 2.68 3 2 3 C0.92474806 5.65228812 -0.09456151 8.28368454 -1 11 C-2.98 11.33 -4.96 11.66 -7 12 C-6.52570343 7.73133091 -3.96478822 5.89066852 -1 3 C-0.67 2.01 -0.34 1.02 0 0 Z " fill="#C5A7B9" transform="translate(243,95)"/>
<path d="M0 0 C0.55171875 0.36867188 1.1034375 0.73734375 1.671875 1.1171875 C0.681875 3.7571875 -0.308125 6.3971875 -1.328125 9.1171875 C-2.648125 8.7871875 -3.968125 8.4571875 -5.328125 8.1171875 C-5.328125 8.7771875 -5.328125 9.4371875 -5.328125 10.1171875 C-5.988125 9.7871875 -6.648125 9.4571875 -7.328125 9.1171875 C-6.338125 7.4671875 -5.348125 5.8171875 -4.328125 4.1171875 C-5.318125 3.7871875 -6.308125 3.4571875 -7.328125 3.1171875 C-7.658125 4.1071875 -7.988125 5.0971875 -8.328125 6.1171875 C-9.648125 5.1271875 -10.968125 4.1371875 -12.328125 3.1171875 C-10.7533956 2.38992698 -9.16788221 1.68598328 -7.578125 0.9921875 C-6.69640625 0.59773438 -5.8146875 0.20328125 -4.90625 -0.203125 C-2.328125 -0.8828125 -2.328125 -0.8828125 0 0 Z " fill="#A06795" transform="translate(53.328125,17.8828125)"/>
<path d="M0 0 C0.99 0.33 1.98 0.66 3 1 C2.01 2.175625 2.01 2.175625 1 3.375 C-1.20201441 5.71512812 -1.20201441 5.71512812 -1 8 C-5.76470588 7.07352941 -5.76470588 7.07352941 -8 6.375 C-10.54500607 5.89781136 -12.50958213 6.37739553 -15 7 C-15 6.34 -15 5.68 -15 5 C-14.08476562 4.72285156 -13.16953125 4.44570312 -12.2265625 4.16015625 C-11.03804687 3.79792969 -9.84953125 3.43570313 -8.625 3.0625 C-7.44164062 2.70285156 -6.25828125 2.34320313 -5.0390625 1.97265625 C-2.12073182 1.12423726 -2.12073182 1.12423726 0 0 Z " fill="#A9849A" transform="translate(180,88)"/>
<path d="M0 0 C1 3 1 3 0.4375 5 C-1 7 -1 7 -3.5625 8.25 C-8.40980691 10.71771988 -12.04879948 14.3034324 -16 18 C-16.33 17.34 -16.66 16.68 -17 16 C-15.33333333 14.33333333 -13.66666667 12.66666667 -12 11 C-11.443125 10.401875 -10.88625 9.80375 -10.3125 9.1875 C-9 8 -9 8 -7 8 C-7 7.34 -7 6.68 -7 6 C-6.34 6 -5.68 6 -5 6 C-5 5.34 -5 4.68 -5 4 C-4.01 4 -3.02 4 -2 4 C-1.34 2.68 -0.68 1.36 0 0 Z " fill="#DAC3D0" transform="translate(265,104)"/>
<path d="M0 0 C1.32 0.33 2.64 0.66 4 1 C4.2519555 4.02346601 4.20421041 5.6402007 2.6875 8.3125 C2.130625 8.869375 1.57375 9.42625 1 10 C0.01 10 -0.98 10 -2 10 C-2.33 10.99 -2.66 11.98 -3 13 C-4 11 -4 11 -3.22265625 8.3984375 C-2.83980469 7.40070313 -2.45695312 6.40296875 -2.0625 5.375 C-1.68222656 4.37210937 -1.30195313 3.36921875 -0.91015625 2.3359375 C-0.60980469 1.56507812 -0.30945313 0.79421875 0 0 Z " fill="#AC8B38" transform="translate(303,108)"/>
<path d="M0 0 C0.66 0.33 1.32 0.66 2 1 C0.71034824 2.37562854 -0.62689293 3.70766393 -2 5 C-2.66 5 -3.32 5 -4 5 C-3.67 6.65 -3.34 8.3 -3 10 C-1.88625 9.95875 -0.7725 9.9175 0.375 9.875 C4 10 4 10 6 12 C1.48382401 12.07654536 -2.59085217 12.10228696 -7 11 C-6.67 8.03 -6.34 5.06 -6 2 C-5.67 2.66 -5.34 3.32 -5 4 C-3.35 2.68 -1.7 1.36 0 0 Z " fill="#EAE4E9" transform="translate(206,139)"/>
<path d="M0 0 C0.66 0.66 1.32 1.32 2 2 C1.01 1.67 0.02 1.34 -1 1 C-0.67 0.67 -0.34 0.34 0 0 Z M-6 1 C-4.35 1.33 -2.7 1.66 -1 2 C-0.67 2.99 -0.34 3.98 0 5 C-5.95795479 6.98598493 -11.74892565 7.57045059 -18 8 C-17.67 7.34 -17.34 6.68 -17 6 C-14.7058459 5.68573231 -12.44226779 5.62075424 -10.12890625 5.5390625 C-7.80573801 5.2110395 -7.80573801 5.2110395 -6.71484375 2.9609375 C-6.47894531 2.31382813 -6.24304688 1.66671875 -6 1 Z " fill="#9C656A" transform="translate(171,117)"/>
<path d="M0 0 C-4.04785246 2.36761181 -7.74725993 2.4036956 -12.34375 2.65625 C-14.99599266 2.9994814 -16.70901793 3.65999162 -19 5 C-19.33 4.67 -19.66 4.34 -20 4 C-21.32 5.65 -22.64 7.3 -24 9 C-24 6.69 -24 4.38 -24 2 C-21.31306278 1.66148822 -18.62559711 1.329064 -15.9375 1 C-14.80924805 0.85691406 -14.80924805 0.85691406 -13.65820312 0.7109375 C-9.06578683 0.15428098 -4.6257865 -0.09829028 0 0 Z " fill="#B1873B" transform="translate(164,125)"/>
<path d="M0 0 C0.33 0 0.66 0 1 0 C1.33 4.62 1.66 9.24 2 14 C1.67 13.01 1.34 12.02 1 11 C-0.65 11.66 -2.3 12.32 -4 13 C-4.66 11.68 -5.32 10.36 -6 9 C-5.01 8.67 -4.02 8.34 -3 8 C-3.33 6.68 -3.66 5.36 -4 4 C-2.68 4 -1.36 4 0 4 C0 2.68 0 1.36 0 0 Z " fill="#BA9940" transform="translate(290,116)"/>
<path d="M0 0 C-0.625 2.4375 -0.625 2.4375 -2 5 C-5.125 5.8125 -5.125 5.8125 -8 6 C-8.28875 5.38125 -8.5775 4.7625 -8.875 4.125 C-9.93720042 1.86674235 -9.93720042 1.86674235 -12 0 C-7.6835078 -0.76173392 -4.25566547 -1.16063604 0 0 Z " fill="#8E547C" transform="translate(92,9)"/>
<path d="M0 0 C2.375 -0.125 2.375 -0.125 5 0 C5.66 0.66 6.32 1.32 7 2 C7.66 1.67 8.32 1.34 9 1 C8 4 8 4 5 6 C3.93753473 7.96752828 2.92862192 9.96587579 2 12 C1.34 12 0.68 12 0 12 C0.20625 11.278125 0.4125 10.55625 0.625 9.8125 C1.06181331 6.53640014 0.28860045 4.97988854 -1 2 C-0.67 1.34 -0.34 0.68 0 0 Z " fill="#D2B75B" transform="translate(300,136)"/>
<path d="M0 0 C3.4375 0.8125 3.4375 0.8125 7 2 C7.33 2.99 7.66 3.98 8 5 C7.67 5.66 7.34 6.32 7 7 C7.39938767 9.09821215 7.39938767 9.09821215 8 11 C7.34 11 6.68 11 6 11 C5.814375 10.401875 5.62875 9.80375 5.4375 9.1875 C3.27726247 5.90018201 0.64892345 5.35145313 -3 4 C-2.67 3.34 -2.34 2.68 -2 2 C-1.34 2 -0.68 2 0 2 C0 1.34 0 0.68 0 0 Z " fill="#BCA148" transform="translate(301,56)"/>
<path d="M0 0 C0.99 0.33 1.98 0.66 3 1 C2.67 3.31 2.34 5.62 2 8 C-4.0546875 8.9765625 -4.0546875 8.9765625 -6 9 C-6.66 8.34 -7.32 7.68 -8 7 C-7.67 6.34 -7.34 5.68 -7 5 C-5.68 5 -4.36 5 -3 5 C-3 4.34 -3 3.68 -3 3 C-2.34 3 -1.68 3 -1 3 C-0.67 2.01 -0.34 1.02 0 0 Z " fill="#E8D676" transform="translate(273,164)"/>
<path d="M0 0 C1 2 1 2 0.5 4.5 C-1 7 -1 7 -4.625 8.3125 C-5.73875 8.539375 -6.8525 8.76625 -8 9 C-8 9.99 -8 10.98 -8 12 C-10.31 12.66 -12.62 13.32 -15 14 C-15 13.34 -15 12.68 -15 12 C-13.34467377 10.98133771 -11.67739862 9.98189187 -10 9 C-9.67 8.34 -9.34 7.68 -9 7 C-4.5 4 -4.5 4 -2 4 C-1.34 2.68 -0.68 1.36 0 0 Z " fill="#8E4D73" transform="translate(254,136)"/>
<path d="M0 0 C-2.58109634 4.39742339 -4.15282524 6.4246682 -9 8 C-9.70125 8.556875 -10.4025 9.11375 -11.125 9.6875 C-11.74375 10.120625 -12.3625 10.55375 -13 11 C-13.99 10.67 -14.98 10.34 -16 10 C-15.36191406 9.44570312 -14.72382813 8.89140625 -14.06640625 8.3203125 C-13.24011719 7.59585938 -12.41382813 6.87140625 -11.5625 6.125 C-10.73878906 5.40570313 -9.91507813 4.68640625 -9.06640625 3.9453125 C-6.94017845 2.16761255 -6.94017845 2.16761255 -6 0 C-3 -1 -3 -1 0 0 Z " fill="#BE9CB1" transform="translate(229,111)"/>
<path d="M0 0 C0 3.63 0 7.26 0 11 C-0.66 10.67 -1.32 10.34 -2 10 C-1.67 9.34 -1.34 8.68 -1 8 C-2.65 8.33 -4.3 8.66 -6 9 C-6.36521739 3.52173913 -6.36521739 3.52173913 -4.6875 1.125 C-3 0 -3 0 0 0 Z " fill="#AC842C" transform="translate(290,109)"/>
<path d="M0 0 C0.66 0.33 1.32 0.66 2 1 C2 2.65 2 4.3 2 6 C4.72943537 6.05416741 7.45778564 6.09375225 10.1875 6.125 C10.95642578 6.14175781 11.72535156 6.15851563 12.51757812 6.17578125 C16.8149434 6.21266851 20.07901831 5.9958504 24 4 C24 5.32 24 6.64 24 8 C15.75 8 7.5 8 -1 8 C-0.67 5.36 -0.34 2.72 0 0 Z " fill="#9F7C30" transform="translate(308,84)"/>
<path d="M0 0 C5.61 0 11.22 0 17 0 C16.67 0.66 16.34 1.32 16 2 C13.85546875 2.4140625 13.85546875 2.4140625 11.1875 2.625 C10.31480469 2.69976562 9.44210937 2.77453125 8.54296875 2.8515625 C6.36512507 2.97868702 4.18155077 3 2 3 C2 3.99 2 4.98 2 6 C1.34 6 0.68 6 0 6 C0 4.02 0 2.04 0 0 Z " fill="#A2823D" transform="translate(271,97)"/>
<path d="M0 0 C0.66 0 1.32 0 2 0 C1.74224693 2.66850233 1.46918193 5.33400248 1.1875 8 C1.11724609 8.74378906 1.04699219 9.48757812 0.97460938 10.25390625 C0.39430623 15.59269522 -0.94162868 20.03735134 -3 25 C-4.44877995 22.10244009 -3.28570981 20.13688821 -2.4765625 17.1484375 C-1.79744209 14.08682908 -1.94316582 11.1258797 -2 8 C-1.23636364 1.23636364 -1.23636364 1.23636364 0 0 Z " fill="#A67A25" transform="translate(182,120)"/>
<path d="M0 0 C1.32 0.33 2.64 0.66 4 1 C2.61122646 4.35620271 1.08322035 6.07298728 -2 8 C-2.66 8 -3.32 8 -4 8 C-4 8.66 -4 9.32 -4 10 C-4.66 10 -5.32 10 -6 10 C-6 10.99 -6 11.98 -6 13 C-7.65 12.67 -9.3 12.34 -11 12 C-10.278125 11.443125 -9.55625 10.88625 -8.8125 10.3125 C-3.31128088 5.95774976 -3.31128088 5.95774976 0 0 Z " fill="#E9DFE6" transform="translate(254,95)"/>
<path d="M0 0 C2.56654176 1.28327088 2.67462406 2.14856743 3.625 4.8125 C5.45417358 10.51143277 5.27064483 16.07588546 5 22 C2.93893987 18.90840981 2.72519965 17.92189443 2.5 14.375 C2.10005503 9.4302258 1.16596359 4.81931618 0 0 Z " fill="#B69C4B" transform="translate(330,45)"/>
<path d="M0 0 C0.33 0.99 0.66 1.98 1 3 C-0.9115825 4.79736845 -2.82886184 6.58789474 -4.75 8.375 C-5.55824219 9.13683594 -5.55824219 9.13683594 -6.3828125 9.9140625 C-9.09097827 12.4240698 -11.55080159 14.61027443 -15 16 C-15 15.01 -15 14.02 -15 13 C-13.2421875 11.38671875 -13.2421875 11.38671875 -10.875 9.6875 C-6.87253603 6.71568631 -3.43239287 3.60841302 0 0 Z " fill="#B488A2" transform="translate(264,117)"/>
<path d="M0 0 C1.3805087 3.76668598 0.59568159 6.44789173 -0.4375 10.25 C-0.72496094 11.32765625 -1.01242188 12.4053125 -1.30859375 13.515625 C-1.53675781 14.33546875 -1.76492187 15.1553125 -2 16 C-2.66 16 -3.32 16 -4 16 C-4 5.5 -4 5.5 0 0 Z " fill="#74395C" transform="translate(233,77)"/>
<path d="M0 0 C0.99 0.495 0.99 0.495 2 1 C2 1.66 2 2.32 2 3 C2.99 2.67 3.98 2.34 5 2 C5.625 4.375 5.625 4.375 6 7 C4 9 4 9 0 11 C0 7.37 0 3.74 0 0 Z " fill="#AF8D35" transform="translate(309,71)"/>
<path d="M0 0 C0.66 0 1.32 0 2 0 C3.65 4.29 5.3 8.58 7 13 C5.68 12.67 4.36 12.34 3 12 C2.896875 11.401875 2.79375 10.80375 2.6875 10.1875 C2.17782476 7.90825352 2.17782476 7.90825352 0.375 6.5625 C-0.07875 6.046875 -0.5325 5.53125 -1 5 C-0.6875 2.3125 -0.6875 2.3125 0 0 Z " fill="#AE88A2" transform="translate(229,35)"/>
<path d="M0 0 C0.99 0.33 1.98 0.66 3 1 C3.25 3.8125 3.25 3.8125 3 7 C1 8.875 1 8.875 -1 10 C-1 9.01 -1 8.02 -1 7 C-1.66 7 -2.32 7 -3 7 C-3.33 5.02 -3.66 3.04 -4 1 C-2.68 1.33 -1.36 1.66 0 2 C0 1.34 0 0.68 0 0 Z " fill="#E2D168" transform="translate(248,32)"/>
<path d="M0 0 C1.9375 0.8125 1.9375 0.8125 4 2 C4.33 2.99 4.66 3.98 5 5 C2.0534615 6.80066242 -0.88801935 8.50163895 -4 10 C-3.43454163 6.04179141 -2.19097652 3.3340947 0 0 Z " fill="#AC6FA3" transform="translate(28,27)"/>
<path d="M0 0 C2.97 0.495 2.97 0.495 6 1 C5.278125 1.556875 4.55625 2.11375 3.8125 2.6875 C-1.68871912 7.04225024 -1.68871912 7.04225024 -5 13 C-7.97 12.505 -7.97 12.505 -11 12 C-9 10 -9 10 -6.9375 9.0625 C-4.65434116 8.09596458 -4.65434116 8.09596458 -4 5 C-1.9375 3.8125 -1.9375 3.8125 0 3 C0 2.01 0 1.02 0 0 Z " fill="#E1D1DB" transform="translate(221,138)"/>
<path d="M0 0 C2.67927341 4.01891012 2.15601248 6.24161923 2 11 C0.35 11.66 -1.3 12.32 -3 13 C-2.45144652 8.428721 -1.58255197 4.32564205 0 0 Z " fill="#723E5D" transform="translate(96,28)"/>
<path d="M0 0 C0.66 0.33 1.32 0.66 2 1 C2.20086443 4.71599191 2.1519437 5.77208445 0 9 C6.27 9 12.54 9 19 9 C19 9.33 19 9.66 19 10 C12.07 10 5.14 10 -2 10 C-1.34 6.7 -0.68 3.4 0 0 Z " fill="#C0AB68" transform="translate(129,173)"/>
<path d="M0 0 C-1.38782485 0.8466034 -2.78569397 1.67675339 -4.1875 2.5 C-4.96480469 2.9640625 -5.74210938 3.428125 -6.54296875 3.90625 C-9.24103386 5.10729647 -11.0806982 5.20741043 -14 5 C-13.67 3.68 -13.34 2.36 -13 1 C-12.0925 0.855625 -11.185 0.71125 -10.25 0.5625 C-7.15495103 0.08635504 -7.15495103 0.08635504 -4.8125 -0.625 C-3 -1 -3 -1 0 0 Z " fill="#7C4262" transform="translate(197,112)"/>
<path d="M0 0 C0.99 0.33 1.98 0.66 3 1 C2.28972656 1.60328125 1.57945312 2.2065625 0.84765625 2.828125 C-0.07144531 3.62734375 -0.99054688 4.4265625 -1.9375 5.25 C-2.85402344 6.03890625 -3.77054688 6.8278125 -4.71484375 7.640625 C-6.91526249 9.91251033 -7.66832555 10.92319022 -8 14 C-8.66 14 -9.32 14 -10 14 C-10 12.35 -10 10.7 -10 9 C-9.01 8.67 -8.02 8.34 -7 8 C-7 7.34 -7 6.68 -7 6 C-5.57421875 4.45703125 -5.57421875 4.45703125 -3.6875 2.8125 C-3.07261719 2.26207031 -2.45773438 1.71164063 -1.82421875 1.14453125 C-1.22222656 0.76683594 -0.62023437 0.38914062 0 0 Z " fill="#F2EAEF" transform="translate(258,103)"/>
<path d="M0 0 C0.99 0.33 1.98 0.66 3 1 C-1.79077028 5.9255107 -6.77674023 10.53648711 -12 15 C-12.66 14.67 -13.32 14.34 -14 14 C-9.38 9.38 -4.76 4.76 0 0 Z " fill="#A26C8C" transform="translate(226,101)"/>
<path d="M0 0 C0.99 0 1.98 0 3 0 C3 4 3 4 1.9375 6 C0.78955046 8.44895901 1.10965014 9.50702038 2 12 C0.35 12.33 -1.3 12.66 -3 13 C-2.01 8.71 -1.02 4.42 0 0 Z " fill="#D4BBCD" transform="translate(64,153)"/>
<path d="M0 0 C0.66 1.32 1.32 2.64 2 4 C0.7260411 6.03833424 -0.61061923 8.03852126 -2 10 C-2.66 10 -3.32 10 -4 10 C-4.33 10.66 -4.66 11.32 -5 12 C-4.54177532 8.53058454 -4.10868317 5.32604951 -3 2 C-2.01 1.34 -1.02 0.68 0 0 Z " fill="#93607F" transform="translate(93,50)"/>
<path d="M0 0 C0.66 0.33 1.32 0.66 2 1 C-1.3 3.97 -4.6 6.94 -8 10 C-8.66 9.67 -9.32 9.34 -10 9 C-9 6 -9 6 -6.125 4.5 C-5.09375 4.005 -4.0625 3.51 -3 3 C-1.18445841 1.43897509 -1.18445841 1.43897509 0 0 Z M-11 10 C-11 10.99 -11 11.98 -11 13 C-12.65 13.66 -14.3 14.32 -16 15 C-14.35 13.35 -12.7 11.7 -11 10 Z " fill="#CFB2C3" transform="translate(218,121)"/>
<path d="M0 0 C2.125 0.9375 2.125 0.9375 4 2 C3.67 2.66 3.34 3.32 3 4 C2.113125 4.061875 1.22625 4.12375 0.3125 4.1875 C-4.38275405 5.33916609 -6.21441757 8.21674443 -9 12 C-9.33 10.68 -9.66 9.36 -10 8 C-8.71064081 6.85157077 -7.41843421 5.70633773 -6.125 4.5625 C-5.04605469 3.60537109 -5.04605469 3.60537109 -3.9453125 2.62890625 C-2 1 -2 1 0 0 Z " fill="#AF819C" transform="translate(98,58)"/>
<path d="M0 0 C0.66 0.33 1.32 0.66 2 1 C-1.63 4.63 -5.26 8.26 -9 12 C-8.67 12.66 -8.34 13.32 -8 14 C-9.65 14 -11.3 14 -13 14 C-11.49055027 10.15776433 -9.23156958 8.48004177 -6 6 C-4.3142876 4.35259924 -2.6436814 2.68933922 -1 1 C-0.67 0.67 -0.34 0.34 0 0 Z " fill="#AD7E9A" transform="translate(153,10)"/>
<path d="M0 0 C1.02104551 0.97850195 2.0206121 1.97980427 3 3 C3 3.33 3 3.66 3 4 C-0.83724172 4.90413673 -4.37502274 5.10576898 -8.3125 5.0625 C-9.38113281 5.05347656 -10.44976562 5.04445312 -11.55078125 5.03515625 C-12.35902344 5.02355469 -13.16726562 5.01195312 -14 5 C-13.67 4.01 -13.34 3.02 -13 2 C-11.9171875 2.2475 -11.9171875 2.2475 -10.8125 2.5 C-8.06606391 2.9882553 -5.77499681 3.29210493 -3 3 C-1.18523997 1.60414215 -1.18523997 1.60414215 0 0 Z " fill="#C6AC52" transform="translate(143,177)"/>
<path d="M0 0 C0.33 0.66 0.66 1.32 1 2 C3.52733235 2.65555119 3.52733235 2.65555119 6 3 C5.625 5.4375 5.625 5.4375 5 8 C4.01 8.495 4.01 8.495 3 9 C2.34444881 11.52733235 2.34444881 11.52733235 2 14 C1.67 14 1.34 14 1 14 C0.67 9.38 0.34 4.76 0 0 Z " fill="#B38FA6" transform="translate(206,51)"/>
<path d="M0 0 C3.63 0 7.26 0 11 0 C11 0.66 11 1.32 11 2 C11.66 2.33 12.32 2.66 13 3 C7.70769231 5.21538462 7.70769231 5.21538462 4.125 4.125 C3.42375 3.75375 2.7225 3.3825 2 3 C2 2.34 2 1.68 2 1 C1.34 0.67 0.68 0.34 0 0 Z " fill="#DAC660" transform="translate(298,27)"/>
<path d="M0 0 C4.29 1.32 8.58 2.64 13 4 C12.01 4.66 11.02 5.32 10 6 C9.01 5.67 8.02 5.34 7 5 C6.67 5.66 6.34 6.32 6 7 C4.125 6.3125 4.125 6.3125 2 5 C1.34 3.35 0.68 1.7 0 0 Z " fill="#E0D4DB" transform="translate(123,89)"/>
<path d="M0 0 C0 1.65 0 3.3 0 5 C-4.455 3.02 -4.455 3.02 -9 1 C-9 0.34 -9 -0.32 -9 -1 C-5.22102349 -2.0497157 -3.35080929 -2.10976881 0 0 Z " fill="#E4D8E1" transform="translate(196,34)"/>
<path d="M0 0 C0.66 0.66 1.32 1.32 2 2 C-1.46941158 7.46695158 -4.18619408 10.15009514 -10 13 C-10 11 -10 11 -7.75 8.5 C-5 6 -5 6 -2.75 4.9375 C-0.77905978 4.1346633 -0.77905978 4.1346633 -0.25 1.875 C-0.1675 1.25625 -0.085 0.6375 0 0 Z " fill="#CFAEC1" transform="translate(265,107)"/>
<path d="M0 0 C-2.475 3.465 -2.475 3.465 -5 7 C-5.33 6.01 -5.66 5.02 -6 4 C-6.66 4 -7.32 4 -8 4 C-8 3.01 -8 2.02 -8 1 C-3.375 -1.125 -3.375 -1.125 0 0 Z " fill="#D7C882" transform="translate(269,158)"/>
<path d="M0 0 C0.66 0.99 1.32 1.98 2 3 C1.05016642 4.50539661 0.08988109 6.00420347 -0.875 7.5 C-1.40867187 8.3353125 -1.94234375 9.170625 -2.4921875 10.03125 C-2.98976563 10.6809375 -3.48734375 11.330625 -4 12 C-4.66 12 -5.32 12 -6 12 C-6 11.34 -6 10.68 -6 10 C-6.66 9.67 -7.32 9.34 -8 9 C-7.38125 8.938125 -6.7625 8.87625 -6.125 8.8125 C-3.72238859 8.171081 -3.72238859 8.171081 -2.75 5.4375 C-2.5025 4.633125 -2.255 3.82875 -2 3 C-1.34 3 -0.68 3 0 3 C0 2.01 0 1.02 0 0 Z " fill="#C9B261" transform="translate(312,131)"/>
<path d="M0 0 C0.33 0 0.66 0 1 0 C0.52813031 4.32547217 -0.04409054 8.60274055 -0.875 12.875 C-1.01679687 13.61492187 -1.15859375 14.35484375 -1.3046875 15.1171875 C-2 17 -2 17 -5 19 C-4.79503906 18.19175781 -4.59007813 17.38351563 -4.37890625 16.55078125 C-4.10949219 15.48214844 -3.84007813 14.41351563 -3.5625 13.3125 C-3.29566406 12.25675781 -3.02882813 11.20101562 -2.75390625 10.11328125 C-2.28143841 8.1622094 -1.84570059 6.20147238 -1.46484375 4.23046875 C-1 2 -1 2 0 0 Z " fill="#946981" transform="translate(110,154)"/>
<path d="M0 0 C1 2 1 2 0.44140625 4.1640625 C0.15136719 4.97617188 -0.13867188 5.78828125 -0.4375 6.625 C-0.72496094 7.44226563 -1.01242188 8.25953125 -1.30859375 9.1015625 C-1.65083984 10.04128906 -1.65083984 10.04128906 -2 11 C-3.32 11 -4.64 11 -6 11 C-6.66 10.34 -7.32 9.68 -8 9 C-7 8 -7 8 -4.4375 7.9375 C-3.2309375 7.9684375 -3.2309375 7.9684375 -2 8 C-1.855625 6.865625 -1.71125 5.73125 -1.5625 4.5625 C-1 1 -1 1 0 0 Z " fill="#B190A4" transform="translate(116,132)"/>
<path d="M0 0 C0.66 0.33 1.32 0.66 2 1 C0.02 4.96 -1.96 8.92 -4 13 C-6 9 -6 9 -6 7 C-5.34 7 -4.68 7 -4 7 C-4 6.34 -4 5.68 -4 5 C-3.34 5 -2.68 5 -2 5 C-2 4.01 -2 3.02 -2 2 C-1.34 2 -0.68 2 0 2 C0 1.34 0 0.68 0 0 Z " fill="#B79C4F" transform="translate(322,114)"/>
<path d="M0 0 C3.99012371 0.55989303 6.5255052 1.75669768 9.8125 4.0625 C10.60269531 4.61035156 11.39289063 5.15820312 12.20703125 5.72265625 C12.79871094 6.14417969 13.39039063 6.56570312 14 7 C13.01 7.33 12.02 7.66 11 8 C1.55421687 3.10843373 1.55421687 3.10843373 0 0 Z " fill="#CDB96A" transform="translate(309,28)"/>
<path d="M0 0 C5.28 0.33 10.56 0.66 16 1 C16 1.33 16 1.66 16 2 C7.09 2.99 7.09 2.99 -2 4 C-1.34 2.68 -0.68 1.36 0 0 Z " fill="#875477" transform="translate(66,24)"/>
<path d="M0 0 C-2.77280706 3.08089673 -5.06326356 4.68775452 -9 6 C-9 5.01 -9 4.02 -9 3 C-8.34 2.67 -7.68 2.34 -7 2 C-7 1.34 -7 0.68 -7 0 C-4.3333581 -1.33332095 -2.83319697 -0.67102033 0 0 Z " fill="#E1D08B" transform="translate(259,169)"/>
<path d="M0 0 C0.33 0.99 0.66 1.98 1 3 C-0.56048888 6.12097775 -2.29780559 8.76775245 -5 11 C-5.66 11 -6.32 11 -7 11 C-7 11.66 -7 12.32 -7 13 C-7.99 12.67 -8.98 12.34 -10 12 C-9.44570313 11.38511719 -8.89140625 10.77023438 -8.3203125 10.13671875 C-7.59585937 9.32847656 -6.87140625 8.52023438 -6.125 7.6875 C-5.40570313 6.88699219 -4.68640625 6.08648437 -3.9453125 5.26171875 C-1.88394498 2.95810917 -1.88394498 2.95810917 0 0 Z " fill="#D9CC84" transform="translate(277,156)"/>
<path d="M0 0 C1.134375 0.020625 2.26875 0.04125 3.4375 0.0625 C-1.70535714 5.63392857 -1.70535714 5.63392857 -5.5625 6.0625 C-4.48849278 0.07874549 -4.48849278 0.07874549 0 0 Z " fill="#E0D37E" transform="translate(289.5625,159.9375)"/>
<path d="M0 0 C1.65 0.33 3.3 0.66 5 1 C4.34 2.65 3.68 4.3 3 6 C2.34 6 1.68 6 1 6 C0.67 6.66 0.34 7.32 0 8 C-0.33 7.67 -0.66 7.34 -1 7 C-0.71269945 4.66055264 -0.38063221 2.3260857 0 0 Z " fill="#DBCA71" transform="translate(293,152)"/>
<path d="M0 0 C0.33 0 0.66 0 1 0 C1.2358396 5.77807024 0.86783046 10.51324804 -1 16 C-1.66 15.67 -2.32 15.34 -3 15 C-2.69052329 13.06201479 -2.37731166 11.12462574 -2.0625 9.1875 C-1.88847656 8.10855469 -1.71445312 7.02960938 -1.53515625 5.91796875 C-1 3 -1 3 0 0 Z " fill="#A8852D" transform="translate(334,71)"/>
<path d="M0 0 C-0.33 0.99 -0.66 1.98 -1 3 C-4.63 3.33 -8.26 3.66 -12 4 C-12 3.34 -12 2.68 -12 2 C-7.82262526 0.40861915 -4.46839215 -0.21278058 0 0 Z " fill="#E4D68B" transform="translate(252,179)"/>
<path d="M0 0 C1.65 0 3.3 0 5 0 C2.71461395 4.08963819 0.04293074 7.46362104 -3 11 C-3.99 10.67 -4.98 10.34 -6 10 C-5.04578192 8.85073734 -4.08647955 7.70569459 -3.125 6.5625 C-2.32449219 5.60537109 -2.32449219 5.60537109 -1.5078125 4.62890625 C0 3 0 3 2 2 C1.34 1.34 0.68 0.68 0 0 Z " fill="#CBAFC0" transform="translate(225,140)"/>
<path d="M0 0 C0.99 0 1.98 0 3 0 C4.60339848 3.11771927 5.18974141 4.39011689 4.125 7.8125 C3.75375 8.534375 3.3825 9.25625 3 10 C2.34 9.67 1.68 9.34 1 9 C1.226875 8.401875 1.45375 7.80375 1.6875 7.1875 C1.790625 6.465625 1.89375 5.74375 2 5 C0.64555699 3.22809091 0.64555699 3.22809091 -1 2 C-0.67 1.34 -0.34 0.68 0 0 Z " fill="#B48F3A" transform="translate(172,150)"/>
<path d="M0 0 C0.66 0.66 1.32 1.32 2 2 C0.7934375 3.11375 0.7934375 3.11375 -0.4375 4.25 C-2.76988591 6.75304829 -3.63534394 7.7180955 -4 11 C-5.32 11 -6.64 11 -8 11 C-6.63629701 8.00779732 -5.05091917 5.70973471 -2.875 3.25 C-2.33617187 2.63640625 -1.79734375 2.0228125 -1.2421875 1.390625 C-0.62730469 0.70226562 -0.62730469 0.70226562 0 0 Z " fill="#C0A3B5" transform="translate(230,140)"/>
<path d="M0 0 C-0.33 0.99 -0.66 1.98 -1 3 C-5.455 3.495 -5.455 3.495 -10 4 C-10.33 3.34 -10.66 2.68 -11 2 C-7.17010894 0.19769832 -4.21878192 -0.19622241 0 0 Z " fill="#975D83" transform="translate(62,26)"/>
<path d="M0 0 C0.33 0.99 0.66 1.98 1 3 C1.99 3.33 2.98 3.66 4 4 C3.34 5.32 2.68 6.64 2 8 C1.34 7.01 0.68 6.02 0 5 C-0.99 5.99 -1.98 6.98 -3 8 C-2.45276317 4.62537285 -1.9451 2.91765 0 0 Z " fill="#AC8529" transform="translate(144,128)"/>
<path d="M0 0 C1.65 0.33 3.3 0.66 5 1 C4.67 2.32 4.34 3.64 4 5 C2.02 5.33 0.04 5.66 -2 6 C-1.49396008 3.83125748 -1.00016187 2.00032373 0 0 Z " fill="#D0B1C3" transform="translate(238,101)"/>
<path d="M0 0 C-1.485 1.485 -1.485 1.485 -3 3 C-3.99 2.67 -4.98 2.34 -6 2 C-6.66 2.66 -7.32 3.32 -8 4 C-8.33 3.67 -8.66 3.34 -9 3 C-10.66617115 2.95936168 -12.33388095 2.957279 -14 3 C-10.17190555 -0.82809445 -5.1539534 -0.10105791 0 0 Z " fill="#8F5E80" transform="translate(80,11)"/>
<path d="M0 0 C1.58025005 0.21192095 3.16398461 0.39923371 4.75 0.5625 C5.54921875 0.64628906 6.3484375 0.73007813 7.171875 0.81640625 C8.07679687 0.90728516 8.07679687 0.90728516 9 1 C9 1.33 9 1.66 9 2 C3.06 2 -2.88 2 -9 2 C-4.24697645 -1.16868237 -4.24697645 -1.16868237 0 0 Z " fill="#8E667F" transform="translate(94,181)"/>
<path d="M0 0 C0.99 1.32 1.98 2.64 3 4 C2.34 4 1.68 4 1 4 C0.67 5.32 0.34 6.64 0 8 C-0.99 8 -1.98 8 -3 8 C-2.45276317 4.62537285 -1.9451 2.91765 0 0 Z " fill="#BDA350" transform="translate(296,126)"/>
<path d="M0 0 C0.66 0.33 1.32 0.66 2 1 C1.67 1.66 1.34 2.32 1 3 C0.34 3 -0.32 3 -1 3 C-0.67 2.01 -0.34 1.02 0 0 Z M-3 2 C-2.34 2.66 -1.68 3.32 -1 4 C-3.36292656 6.52588702 -4.66462511 7.88820837 -8 9 C-6.88820837 5.66462511 -5.52588702 4.36292656 -3 2 Z " fill="#B386A0" transform="translate(213,117)"/>
<path d="M0 0 C1.5625 1.25 1.5625 1.25 3 3 C2.6875 5.1875 2.6875 5.1875 2 7 C1.67 6.34 1.34 5.68 1 5 C-0.98 5.66 -2.96 6.32 -5 7 C-3.70700306 4.11562221 -2.34058637 2.12780579 0 0 Z " fill="#8B4E74" transform="translate(97,43)"/>
<path d="M0 0 C0.66 0.66 1.32 1.32 2 2 C0.56839732 3.00842453 -0.87051453 4.00647891 -2.3125 5 C-3.51326172 5.8353125 -3.51326172 5.8353125 -4.73828125 6.6875 C-7 8 -7 8 -10 8 C-10 7.34 -10 6.68 -10 6 C-8.906875 5.566875 -7.81375 5.13375 -6.6875 4.6875 C-3.90591207 3.50504359 -1.93638061 2.39199957 0 0 Z " fill="#764561" transform="translate(256,139)"/>
<path d="M0 0 C0.99 0.33 1.98 0.66 3 1 C2.34 1.66 1.68 2.32 1 3 C1.66 3.66 2.32 4.32 3 5 C0.36 5.33 -2.28 5.66 -5 6 C-3.35 4.02 -1.7 2.04 0 0 Z " fill="#B48CA4" transform="translate(228,105)"/>
<path d="M0 0 C0 0.99 0 1.98 0 3 C-4.34285714 7 -4.34285714 7 -7 7 C-6.875 5.1875 -6.875 5.1875 -6 3 C-2.9375 1.25 -2.9375 1.25 0 0 Z " fill="#E1D1DA" transform="translate(208,136)"/>
<path d="M0 0 C0 0.99 0 1.98 0 3 C-1.53125 4.38671875 -1.53125 4.38671875 -3.5 5.6875 C-4.47453125 6.34298828 -4.47453125 6.34298828 -5.46875 7.01171875 C-5.9740625 7.33785156 -6.479375 7.66398437 -7 8 C-5.98823563 4.59679258 -5.35156418 3.24274669 -2.375 1.1875 C-1.59125 0.795625 -0.8075 0.40375 0 0 Z " fill="#9D6586" transform="translate(147,9)"/>
<path d="M0 0 C1.98 0.66 3.96 1.32 6 2 C6 2.33 6 2.66 6 3 C2.68885166 4.12880057 -0.58978257 5.21302675 -4 6 C-2.68 4.02 -1.36 2.04 0 0 Z " fill="#F1ECEF" transform="translate(189,9)"/>
<path d="M0 0 C0.66 0 1.32 0 2 0 C1.67 1.65 1.34 3.3 1 5 C-1.31 5.66 -3.62 6.32 -6 7 C-6 6.34 -6 5.68 -6 5 C-4.34467377 3.98133771 -2.67739862 2.98189187 -1 2 C-0.67 1.34 -0.34 0.68 0 0 Z " fill="#8B5977" transform="translate(245,143)"/>
<path d="M0 0 C0.33 0 0.66 0 1 0 C1 2.64 1 5.28 1 8 C0.01 8 -0.98 8 -2 8 C-2.66 6.68 -3.32 5.36 -4 4 C-2.68 4 -1.36 4 0 4 C0 2.68 0 1.36 0 0 Z " fill="#B39145" transform="translate(290,116)"/>
<path d="M0 0 C1.65 0.33 3.3 0.66 5 1 C4.67 1.99 4.34 2.98 4 4 C3.01 4.33 2.02 4.66 1 5 C1 4.34 1 3.68 1 3 C0.01 2.67 -0.98 2.34 -2 2 C-1.34 2 -0.68 2 0 2 C0 1.34 0 0.68 0 0 Z " fill="#CFB6C4" transform="translate(101,69)"/>
<path d="M0 0 C2.64 0 5.28 0 8 0 C6.68 1.65 5.36 3.3 4 5 C2.64567325 3.68799596 1.31266518 2.35368596 0 1 C0 0.67 0 0.34 0 0 Z " fill="#EADB70" transform="translate(237,25)"/>
<path d="M0 0 C1.98 0.66 3.96 1.32 6 2 C6 3.32 6 4.64 6 6 C5.01 5.67 4.02 5.34 3 5 C3 4.34 3 3.68 3 3 C2.01 2.67 1.02 2.34 0 2 C0 1.34 0 0.68 0 0 Z " fill="#E1D5DD" transform="translate(209,17)"/>
<path d="M0 0 C0 1.66666667 0 3.33333333 0 5 C-2.31 5.33 -4.62 5.66 -7 6 C-4.83312509 3.72478134 -2.54379491 1.84205838 0 0 Z " fill="#E0D28A" transform="translate(265,169)"/>
<path d="M0 0 C0.66 0.99 1.32 1.98 2 3 C1.25 6.125 1.25 6.125 0 9 C-0.99 9.495 -0.99 9.495 -2 10 C-1.34 6.7 -0.68 3.4 0 0 Z " fill="#B2954C" transform="translate(132,163)"/>
<path d="M0 0 C0.66 0.66 1.32 1.32 2 2 C1.01 1.67 0.02 1.34 -1 1 C-0.67 0.67 -0.34 0.34 0 0 Z M-6 1 C-4.35 1.33 -2.7 1.66 -1 2 C-1.33 2.66 -1.66 3.32 -2 4 C-3.65 4 -5.3 4 -7 4 C-6.67 3.01 -6.34 2.02 -6 1 Z " fill="#985C7B" transform="translate(171,117)"/>
<path d="M0 0 C1.65 0.33 3.3 0.66 5 1 C3.25 3.0625 3.25 3.0625 1 5 C-1.25 4.75 -1.25 4.75 -3 4 C-2.01 3.34 -1.02 2.68 0 2 C0 1.34 0 0.68 0 0 Z " fill="#92566F" transform="translate(172,116)"/>
<path d="M0 0 C0.99 0.99 1.98 1.98 3 3 C2.67 3.99 2.34 4.98 2 6 C1.34 6 0.68 6 0 6 C-0.33 7.32 -0.66 8.64 -1 10 C-2.27351308 7.45297384 -1.80191925 6.5717055 -1.0625 3.875 C-0.86785156 3.15054688 -0.67320312 2.42609375 -0.47265625 1.6796875 C-0.31667969 1.12539062 -0.16070312 0.57109375 0 0 Z " fill="#733A58" transform="translate(210,102)"/>
<path d="M0 0 C0.66 0 1.32 0 2 0 C1.67 2.64 1.34 5.28 1 8 C0.34 8 -0.32 8 -1 8 C-1.33 6.35 -1.66 4.7 -2 3 C-1.34 3 -0.68 3 0 3 C0 2.01 0 1.02 0 0 Z " fill="#804568" transform="translate(234,69)"/>
<path d="M0 0 C3.16115776 1.36983503 3.9927092 1.9890638 6 5 C5.01 5.66 4.02 6.32 3 7 C0 2.25 0 2.25 0 0 Z " fill="#CDBDC6" transform="translate(220,24)"/>
<path d="M0 0 C0.99 0.33 1.98 0.66 3 1 C2.38125 1.4125 1.7625 1.825 1.125 2.25 C-1.06768281 4.05573879 -1.92788417 5.4090534 -3 8 C-4 5 -4 5 -3.1875 2.875 C-2 1 -2 1 0 0 Z " fill="#8F5778" transform="translate(211,110)"/>
<path d="M0 0 C2.97 0.33 5.94 0.66 9 1 C8.34 1.66 7.68 2.32 7 3 C3.375 2.625 3.375 2.625 0 2 C0 1.34 0 0.68 0 0 Z " fill="#D8C877" transform="translate(298,25)"/>
<path d="M0 0 C-1.2065625 0.4021875 -1.2065625 0.4021875 -2.4375 0.8125 C-3.283125 1.204375 -4.12875 1.59625 -5 2 C-5.33 2.99 -5.66 3.98 -6 5 C-7.32 4.01 -8.64 3.02 -10 2 C-8.71211992 1.46987262 -7.41953322 0.9511671 -6.125 0.4375 C-5.40570313 0.14746094 -4.68640625 -0.14257812 -3.9453125 -0.44140625 C-2 -1 -2 -1 0 0 Z " fill="#9A6D8E" transform="translate(51,19)"/>
<path d="M0 0 C0.66 0.33 1.32 0.66 2 1 C2.20086443 4.71599191 2.1519437 5.77208445 0 9 C-0.66 8.67 -1.32 8.34 -2 8 C-1.34 5.36 -0.68 2.72 0 0 Z " fill="#B5A25F" transform="translate(129,173)"/>
<path d="M0 0 C0 0.66 0 1.32 0 2 C1.32 2.33 2.64 2.66 4 3 C4 3.33 4 3.66 4 4 C0.85375007 4.26218749 -0.61837017 4.24754367 -3.3125 2.5 C-3.869375 2.005 -4.42625 1.51 -5 1 C-3 0 -3 0 0 0 Z " fill="#E5CD70" transform="translate(249,168)"/>
<path d="M0 0 C1.65 0.33 3.3 0.66 5 1 C4.01 2.32 3.02 3.64 2 5 C1.01 4.67 0.02 4.34 -1 4 C-0.67 2.68 -0.34 1.36 0 0 Z " fill="#DCCA76" transform="translate(258,164)"/>
<path d="M0 0 C1.7074998 1.28062485 3.37373596 2.61767557 5 4 C5 4.66 5 5.32 5 6 C4.01 6 3.02 6 2 6 C2 5.34 2 4.68 2 4 C1.01 4 0.02 4 -1 4 C-1.33 3.01 -1.66 2.02 -2 1 C-1.34 0.67 -0.68 0.34 0 0 Z " fill="#B58F38" transform="translate(134,161)"/>
<path d="M0 0 C0.66 0.33 1.32 0.66 2 1 C1.34 2.32 0.68 3.64 0 5 C-2.97 4.505 -2.97 4.505 -6 4 C-4.02610343 2.02610343 -2.56269497 1.04109483 0 0 Z " fill="#DBCCD4" transform="translate(216,146)"/>
<path d="M0 0 C1.32 0 2.64 0 4 0 C2.92598892 2.91517292 2.22189824 4.77810176 0 7 C0 4.69 0 2.38 0 0 Z " fill="#AF874C" transform="translate(140,127)"/>
<path d="" fill="#808080" transform="translate(0,0)"/>
</svg>